<?xml version="1.0" encoding="UTF-8"?>
<svg id="Layer_1" data-name="Layer 1" xmlns="http://www.w3.org/2000/svg" viewBox="0 0 201.15 90.85">
  <defs>
    <style>
      .cls-1 {
        fill: none;
        stroke: #231f20;
        stroke-miterlimit: 10;
        stroke-width: .81px;
      }

      .cls-2 {
        fill: #aa7455;
      }

      .cls-2, .cls-3 {
        fill-rule: evenodd;
      }

      .cls-2, .cls-3, .cls-4, .cls-5, .cls-6 {
        stroke-width: 0px;
      }

      .cls-3, .cls-6 {
        fill: #855914;
      }

      .cls-4 {
        fill: #406325;
      }

      .cls-5 {
        fill: #231f20;
      }
    </style>
  </defs>
  <g>
    <g>
      <path class="cls-4" d="M16.04,44.38h-4.71v12.34h-3.58v-12.34H3.02v-3.14h13.01v3.14Z"/>
      <path class="cls-4" d="M17.5,43.97v-3.16h3.49v3.16h-3.49ZM17.5,56.72v-11.45h3.49v11.45h-3.49Z"/>
      <path class="cls-4" d="M41.48,56.72h-3.49v-6.43c0-.75-.14-1.3-.41-1.65-.28-.34-.63-.51-1.07-.51-.23,0-.47.05-.71.15s-.46.24-.67.42c-.2.18-.39.4-.56.64s-.3.52-.4.81v6.56h-3.49v-6.43c0-.75-.14-1.3-.41-1.65-.28-.34-.63-.51-1.07-.51-.47,0-.92.19-1.36.56-.44.37-.77.86-.97,1.47v6.56h-3.49v-11.45h3.14v1.92c.42-.7.99-1.23,1.71-1.59.72-.36,1.56-.54,2.52-.54.48,0,.9.06,1.25.17.36.12.67.28.93.48.26.2.47.44.63.71.16.27.28.56.35.86.44-.71,1.01-1.26,1.72-1.65.71-.38,1.53-.58,2.44-.58.73,0,1.31.13,1.75.4s.79.62,1.04,1.05c.25.43.41.9.49,1.41.08.51.12,1,.12,1.48v7.33Z"/>
      <path class="cls-4" d="M50.63,56.94c-.87,0-1.63-.19-2.29-.56-.65-.37-1.17-.89-1.55-1.56v1.9h-3.03v-15.91h3.49v6.34c.38-.65.88-1.17,1.52-1.54.63-.37,1.38-.56,2.23-.56.73,0,1.4.16,2.01.47s1.13.74,1.57,1.28c.44.54.78,1.17,1.02,1.91.25.73.37,1.51.37,2.34s-.13,1.6-.4,2.32c-.27.72-.64,1.34-1.12,1.88-.48.53-1.05.95-1.7,1.24-.65.3-1.36.45-2.11.45ZM49.65,53.99c.41,0,.78-.08,1.11-.23.33-.15.62-.36.86-.62.24-.26.43-.57.57-.93.14-.36.21-.74.21-1.17s-.07-.8-.2-1.17c-.13-.37-.31-.69-.53-.97-.23-.28-.5-.49-.82-.65-.32-.16-.66-.24-1.02-.24-.55,0-1.06.19-1.52.57-.46.38-.81.85-1.06,1.42v2.4c.23.49.57.88,1.01,1.17s.9.42,1.38.42Z"/>
      <path class="cls-4" d="M63.19,56.94c-.96,0-1.82-.16-2.58-.47-.76-.31-1.41-.74-1.94-1.28-.53-.54-.93-1.16-1.21-1.86-.28-.7-.41-1.44-.41-2.21,0-.83.14-1.61.41-2.34.28-.73.68-1.38,1.2-1.93.52-.55,1.17-.99,1.93-1.31.76-.32,1.63-.48,2.6-.48s1.84.16,2.59.48c.76.32,1.4.75,1.92,1.3.52.54.92,1.17,1.19,1.89.27.71.4,1.46.4,2.25,0,.2,0,.4-.02.6-.01.2-.04.37-.07.51h-8.46c.06.77.34,1.36.84,1.75s1.07.6,1.71.6c.51,0,1-.12,1.47-.37.47-.25.79-.58.95-1l2.96.83c-.45.9-1.15,1.63-2.09,2.2-.95.57-2.08.85-3.4.85ZM65.61,49.92c-.07-.73-.33-1.3-.79-1.72-.45-.42-1.01-.63-1.68-.63s-1.25.21-1.69.64-.7,1-.77,1.71h4.93Z"/>
      <path class="cls-4" d="M78.15,48.26c-.84.01-1.61.15-2.29.41-.68.26-1.18.65-1.48,1.18v6.87h-3.49v-11.45h3.2v2.31c.39-.77.9-1.37,1.51-1.81.62-.44,1.28-.66,1.97-.68h.35c.07,0,.15,0,.22.02v3.14Z"/>
      <path class="cls-4" d="M97.24,52.75c0,.67-.14,1.25-.41,1.74-.28.49-.65.9-1.13,1.23-.48.33-1.04.57-1.68.74-.64.17-1.32.25-2.03.25h-7.54v-15.48h8.61c.54,0,1.02.12,1.46.35.44.23.81.53,1.11.9s.54.79.71,1.27c.17.47.25.96.25,1.45,0,.74-.19,1.44-.56,2.09s-.93,1.15-1.67,1.48c.89.26,1.59.73,2.1,1.4.52.67.77,1.53.77,2.57ZM88.02,44.29v3.2h3.51c.39,0,.74-.13,1.05-.39s.46-.67.46-1.22c0-.51-.13-.9-.4-1.18-.27-.28-.59-.41-.97-.41h-3.64ZM93.6,52.03c0-.48-.14-.89-.41-1.22-.28-.33-.62-.5-1.05-.5h-4.12v3.38h3.97c.46,0,.85-.15,1.16-.46.31-.3.46-.71.46-1.2Z"/>
      <path class="cls-4" d="M106.33,48.26c-.84.01-1.61.15-2.29.41-.68.26-1.18.65-1.48,1.18v6.87h-3.49v-11.45h3.2v2.31c.39-.77.9-1.37,1.51-1.81.62-.44,1.28-.66,1.97-.68h.35c.07,0,.15,0,.22.02v3.14Z"/>
      <path class="cls-4" d="M107.79,43.97v-3.16h3.49v3.16h-3.49ZM107.79,56.72v-11.45h3.49v11.45h-3.49Z"/>
      <path class="cls-4" d="M118.43,56.94c-.79,0-1.51-.15-2.17-.45-.66-.3-1.23-.71-1.71-1.25-.48-.54-.85-1.17-1.12-1.89-.27-.72-.4-1.51-.4-2.37s.12-1.61.37-2.33c.25-.73.6-1.35,1.05-1.89.45-.53.98-.95,1.6-1.25.62-.31,1.3-.46,2.04-.46.8,0,1.52.19,2.17.57s1.14.89,1.49,1.53v-6.34h3.49v11.99c0,.35.05.59.16.73.11.14.3.22.58.25v2.94c-.32.07-.6.12-.83.14-.23.02-.45.03-.65.03-.61,0-1.1-.13-1.48-.38-.38-.25-.6-.62-.65-1.1l-.07-.59c-.41.71-.96,1.24-1.65,1.59-.69.35-1.43.52-2.21.52ZM119.37,53.99c.48,0,.94-.14,1.38-.42s.78-.67,1.01-1.17v-2.4c-.22-.58-.57-1.06-1.06-1.43-.49-.37-.99-.56-1.52-.56-.38,0-.72.08-1.04.25s-.58.39-.82.66c-.23.28-.41.6-.53.96-.12.36-.19.75-.19,1.16s.07.81.21,1.18.33.68.57.94c.24.26.53.47.87.61.34.15.71.22,1.1.22Z"/>
      <path class="cls-4" d="M132.38,56.76c-.76,0-1.45-.15-2.07-.46-.62-.31-1.16-.72-1.6-1.24s-.79-1.13-1.04-1.83c-.25-.7-.37-1.45-.37-2.25,0-.84.13-1.62.39-2.34s.62-1.34,1.09-1.88c.46-.53,1.02-.95,1.68-1.25.65-.31,1.37-.46,2.16-.46.87,0,1.63.19,2.28.56.65.37,1.17.88,1.56,1.54v-1.88h3.03v10.66c0,.87-.16,1.66-.49,2.35-.33.7-.78,1.29-1.36,1.78-.58.49-1.28.86-2.09,1.12-.81.26-1.71.39-2.68.39-1.24,0-2.29-.2-3.16-.59s-1.64-.96-2.29-1.7l1.88-1.9c.42.48.94.86,1.57,1.14s1.29.42,2.01.42c.42,0,.82-.06,1.2-.17s.71-.29,1-.53c.29-.24.52-.55.69-.94.17-.39.25-.85.25-1.38v-1.11c-.35.64-.85,1.12-1.5,1.45s-1.36.49-2.12.49ZM133.58,53.99c.54,0,1.02-.15,1.44-.45.42-.3.75-.68.98-1.14v-2.4c-.23-.61-.59-1.09-1.07-1.45s-.99-.53-1.53-.53c-.38,0-.72.08-1.04.25s-.58.39-.81.68c-.23.28-.4.61-.52.98-.12.37-.19.75-.19,1.14,0,.42.07.81.21,1.17.14.36.33.67.58.93s.53.47.86.61c.33.15.69.22,1.08.22Z"/>
      <path class="cls-4" d="M147.36,56.94c-.96,0-1.82-.16-2.58-.47-.76-.31-1.41-.74-1.94-1.28-.53-.54-.93-1.16-1.21-1.86-.28-.7-.41-1.44-.41-2.21,0-.83.14-1.61.41-2.34.28-.73.68-1.38,1.2-1.93.52-.55,1.17-.99,1.93-1.31s1.63-.48,2.61-.48,1.84.16,2.59.48,1.4.75,1.92,1.3c.52.54.92,1.17,1.19,1.89s.4,1.46.4,2.25c0,.2,0,.4-.02.6-.01.2-.04.37-.07.51h-8.46c.06.77.34,1.36.84,1.75.5.4,1.07.6,1.71.6.51,0,1-.12,1.47-.37.47-.25.79-.58.95-1l2.96.83c-.45.9-1.15,1.63-2.09,2.2-.95.57-2.08.85-3.4.85ZM149.78,49.92c-.07-.73-.33-1.3-.79-1.72-.45-.42-1.01-.63-1.68-.63s-1.25.21-1.69.64-.7,1-.77,1.71h4.93Z"/>
      <path class="cls-4" d="M159.57,56.94c-.97,0-1.93-.16-2.88-.47-.95-.31-1.74-.77-2.4-1.36l1.24-2.14c.7.48,1.38.85,2.04,1.11.66.26,1.3.39,1.91.39.45,0,.8-.08,1.05-.24.25-.16.37-.39.37-.7s-.16-.55-.47-.73-.86-.37-1.65-.58c-.77-.22-1.42-.43-1.95-.63-.53-.2-.96-.43-1.3-.68-.33-.25-.57-.53-.72-.85-.15-.32-.22-.7-.22-1.13,0-.58.12-1.11.35-1.59s.55-.89.96-1.22.89-.6,1.45-.79c.56-.19,1.17-.28,1.82-.28.86,0,1.66.12,2.41.35.75.23,1.47.65,2.17,1.26l-1.35,2.09c-.65-.45-1.24-.78-1.74-.98-.51-.2-1-.3-1.48-.3-.38,0-.7.08-.96.23-.26.15-.39.4-.39.73s.14.56.42.72.81.33,1.58.52c.81.22,1.5.44,2.06.65s1.01.46,1.36.73.6.58.76.93c.16.35.24.76.24,1.24,0,1.13-.42,2.04-1.26,2.7-.84.67-1.98,1-3.42,1Z"/>
    </g>
    <g>
      <path class="cls-5" d="M4.77,33.99c.23,0,.43.04.62.11s.36.18.5.31c.14.13.25.29.33.48.08.19.12.39.12.62,0,.24-.04.46-.13.65-.09.2-.21.37-.37.51s-.35.25-.56.33c-.22.08-.46.12-.71.12-.35,0-.66-.07-.93-.21-.27-.14-.48-.33-.63-.58l.6-.66c.12.15.27.28.45.37.17.09.35.14.52.14.2,0,.37-.06.5-.18.13-.12.19-.28.19-.48s-.06-.34-.18-.46c-.12-.12-.27-.18-.45-.18-.12,0-.23.03-.34.08s-.19.13-.24.23h-.92s0-.05.03-.14.04-.2.06-.34.05-.29.09-.46.07-.34.1-.52c.08-.42.17-.89.27-1.42h2.34v.97h-1.57l-.14.8s.08-.06.16-.08c.08-.02.18-.04.31-.04Z"/>
      <path class="cls-5" d="M9.67,32.93h-1v2.63h-.76v-2.63h-1.01v-.67h2.77v.67Z"/>
      <path class="cls-5" d="M13.07,32.26v3.3h-.76v-1.35h-1.31v1.35h-.76v-3.3h.76v1.28h1.31v-1.28h.76Z"/>
      <path class="cls-5" d="M15.83,37.06v-4.72h1.09v4.72h-1.09Z"/>
      <path class="cls-5" d="M19.18,34.36v2.7h-1.09v-4.72h.85l2.2,2.77v-2.77h1.09v4.72h-.88l-2.17-2.7Z"/>
      <path class="cls-5" d="M26.99,33.3h-1.43v3.76h-1.09v-3.76h-1.44v-.96h3.97v.96Z"/>
      <path class="cls-5" d="M31.1,36.1v.96h-3.31v-4.72h3.25v.96h-2.17v.92h1.86v.88h-1.86v1h2.23Z"/>
      <path class="cls-5" d="M32.03,37.06v-4.72h2.13c.22,0,.43.05.61.14.19.09.35.21.49.37s.24.32.32.51c.08.19.12.38.12.58,0,.15-.02.29-.05.42-.04.14-.09.26-.15.38-.07.12-.15.23-.24.32-.1.1-.2.18-.32.24l1.04,1.75h-1.23l-.9-1.52h-.71v1.52h-1.09ZM33.12,34.59h1c.13,0,.24-.06.33-.18.09-.12.14-.28.14-.47s-.05-.35-.16-.47c-.11-.11-.22-.17-.35-.17h-.96v1.29Z"/>
      <path class="cls-5" d="M37.84,34.36v2.7h-1.09v-4.72h.85l2.2,2.77v-2.77h1.09v4.72h-.88l-2.17-2.7Z"/>
      <path class="cls-5" d="M43.34,32.34h.98l1.72,4.72h-1.12l-.37-1.06h-1.47l-.36,1.06h-1.12l1.72-4.72ZM44.38,35.25l-.55-1.67-.56,1.67h1.12Z"/>
      <path class="cls-5" d="M49.9,33.3h-1.43v3.76h-1.09v-3.76h-1.44v-.96h3.97v.96Z"/>
      <path class="cls-5" d="M50.7,37.06v-4.72h1.09v4.72h-1.09Z"/>
      <path class="cls-5" d="M55.02,37.1c-.35,0-.67-.07-.96-.21-.29-.14-.53-.32-.74-.54s-.36-.48-.48-.77c-.11-.29-.17-.58-.17-.89s.06-.61.18-.9c.12-.29.28-.54.49-.76.21-.22.46-.39.75-.52.29-.13.6-.2.94-.2s.67.07.96.21c.29.14.53.32.74.54.2.23.36.48.47.77.11.29.17.58.17.88s-.06.61-.18.9c-.12.29-.28.54-.49.76-.21.22-.46.4-.74.53-.29.13-.6.2-.94.2ZM53.79,34.71c0,.18.03.36.08.53s.13.32.24.46.23.24.39.32c.15.08.33.12.53.12s.39-.04.54-.13c.15-.08.28-.19.38-.33.1-.14.18-.29.23-.46.05-.17.08-.34.08-.52s-.03-.36-.08-.53-.13-.32-.24-.45c-.11-.13-.24-.23-.39-.31-.15-.08-.33-.12-.53-.12s-.39.04-.54.12c-.15.08-.28.19-.39.32s-.18.28-.23.46c-.05.17-.08.34-.08.52Z"/>
      <path class="cls-5" d="M59.36,34.36v2.7h-1.09v-4.72h.85l2.2,2.77v-2.77h1.09v4.72h-.88l-2.17-2.7Z"/>
      <path class="cls-5" d="M64.86,32.34h.98l1.72,4.72h-1.12l-.37-1.06h-1.47l-.36,1.06h-1.12l1.72-4.72ZM65.9,35.25l-.55-1.67-.56,1.67h1.12Z"/>
      <path class="cls-5" d="M68.29,37.06v-4.72h1.09v3.76h2.28v.96h-3.37Z"/>
      <path class="cls-5" d="M73.8,34.66c0-.28.05-.57.16-.85.11-.28.26-.53.46-.75.2-.22.45-.4.74-.54.29-.14.62-.21,1-.21.44,0,.83.1,1.15.29s.57.44.73.74l-.84.58c-.05-.12-.12-.23-.2-.31s-.17-.15-.27-.2c-.1-.05-.2-.09-.3-.11-.1-.02-.2-.03-.3-.03-.21,0-.39.04-.54.13-.16.08-.28.19-.39.33s-.18.28-.23.45c-.05.17-.07.34-.07.51,0,.19.03.37.09.54s.14.33.25.46.24.24.39.32c.15.08.32.12.52.12.1,0,.2-.01.3-.04.1-.02.2-.06.3-.11.1-.05.18-.12.26-.2.08-.08.14-.18.19-.3l.89.52c-.07.17-.18.33-.32.46-.14.14-.3.25-.48.35-.18.09-.37.16-.58.21-.2.05-.4.07-.6.07-.34,0-.65-.07-.94-.21-.29-.14-.53-.32-.74-.55-.21-.23-.37-.49-.48-.78-.11-.29-.17-.59-.17-.89Z"/>
      <path class="cls-5" d="M80.93,37.1c-.35,0-.67-.07-.96-.21-.29-.14-.53-.32-.74-.54s-.36-.48-.48-.77c-.11-.29-.17-.58-.17-.89s.06-.61.18-.9c.12-.29.28-.54.49-.76.21-.22.46-.39.75-.52.29-.13.6-.2.94-.2s.67.07.96.21c.29.14.53.32.74.54.2.23.36.48.47.77.11.29.17.58.17.88s-.06.61-.18.9c-.12.29-.28.54-.49.76-.21.22-.46.4-.74.53-.29.13-.6.2-.94.2ZM79.7,34.71c0,.18.03.36.08.53s.13.32.24.46.23.24.39.32c.15.08.33.12.53.12s.39-.04.54-.13c.15-.08.28-.19.38-.33.1-.14.18-.29.23-.46.05-.17.08-.34.08-.52s-.03-.36-.08-.53-.13-.32-.24-.45c-.11-.13-.24-.23-.39-.31-.15-.08-.33-.12-.53-.12s-.39.04-.54.12c-.15.08-.28.19-.39.32s-.18.28-.23.46c-.05.17-.08.34-.08.52Z"/>
      <path class="cls-5" d="M85.27,34.36v2.7h-1.09v-4.72h.85l2.2,2.77v-2.77h1.09v4.72h-.88l-2.17-2.7Z"/>
      <path class="cls-5" d="M89.49,37.06v-4.72h3.2v.96h-2.11v1.02h1.74v.88h-1.74v1.86h-1.09Z"/>
      <path class="cls-5" d="M96.84,36.1v.96h-3.31v-4.72h3.25v.96h-2.17v.92h1.86v.88h-1.86v1h2.23Z"/>
      <path class="cls-5" d="M97.77,37.06v-4.72h2.13c.22,0,.43.05.61.14.19.09.35.21.49.37s.24.32.32.51c.08.19.12.38.12.58,0,.15-.02.29-.05.42-.04.14-.09.26-.15.38-.07.12-.15.23-.24.32-.1.1-.2.18-.32.24l1.04,1.75h-1.23l-.9-1.52h-.71v1.52h-1.09ZM98.86,34.59h1c.13,0,.24-.06.33-.18.09-.12.14-.28.14-.47s-.05-.35-.16-.47c-.11-.11-.22-.17-.35-.17h-.96v1.29Z"/>
      <path class="cls-5" d="M105.8,36.1v.96h-3.31v-4.72h3.25v.96h-2.17v.92h1.86v.88h-1.86v1h2.23Z"/>
      <path class="cls-5" d="M107.82,34.36v2.7h-1.09v-4.72h.85l2.2,2.77v-2.77h1.09v4.72h-.88l-2.17-2.7Z"/>
      <path class="cls-5" d="M111.77,34.66c0-.28.05-.57.16-.85s.26-.53.46-.75c.2-.22.45-.4.74-.54s.62-.21,1-.21c.44,0,.83.1,1.15.29.33.19.57.44.73.74l-.84.58c-.05-.12-.12-.23-.2-.31-.08-.08-.17-.15-.27-.2-.1-.05-.2-.09-.3-.11s-.2-.03-.3-.03c-.21,0-.39.04-.54.13s-.28.19-.38.33c-.1.13-.18.28-.23.45-.05.17-.07.34-.07.51,0,.19.03.37.09.54s.14.33.25.46.24.24.39.32c.15.08.33.12.52.12.1,0,.2-.01.3-.04s.2-.06.3-.11c.1-.05.18-.12.26-.2.08-.08.14-.18.19-.3l.89.52c-.07.17-.18.33-.32.46-.14.14-.3.25-.48.35-.18.09-.37.16-.58.21-.2.05-.4.07-.6.07-.34,0-.65-.07-.94-.21s-.53-.32-.74-.55c-.21-.23-.37-.49-.48-.78-.11-.29-.17-.59-.17-.89Z"/>
      <path class="cls-5" d="M120.19,36.1v.96h-3.31v-4.72h3.25v.96h-2.17v.92h1.86v.88h-1.86v1h2.22Z"/>
      <path class="cls-5" d="M125,37.1c-.35,0-.67-.07-.96-.21-.29-.14-.53-.32-.74-.54-.2-.22-.36-.48-.48-.77-.11-.29-.17-.58-.17-.89s.06-.61.18-.9c.12-.29.28-.54.49-.76.21-.22.46-.39.75-.52.29-.13.6-.2.94-.2s.67.07.96.21c.29.14.53.32.74.54.2.23.36.48.47.77.11.29.17.58.17.88s-.06.61-.18.9c-.12.29-.28.54-.49.76-.21.22-.46.4-.74.53-.29.13-.6.2-.94.2ZM123.77,34.71c0,.18.03.36.08.53.05.17.13.32.24.46.1.13.23.24.39.32.15.08.33.12.53.12s.39-.04.54-.13c.15-.08.28-.19.38-.33s.18-.29.23-.46c.05-.17.08-.34.08-.52s-.03-.36-.08-.53c-.05-.17-.13-.32-.24-.45-.11-.13-.24-.23-.39-.31-.15-.08-.33-.12-.53-.12s-.39.04-.54.12c-.15.08-.28.19-.38.32-.1.13-.18.28-.23.46s-.08.34-.08.52Z"/>
      <path class="cls-5" d="M129.34,34.36v2.7h-1.09v-4.72h.85l2.2,2.77v-2.77h1.09v4.72h-.88l-2.17-2.7Z"/>
    </g>
    <g>
      <path class="cls-6" d="M8.54,71.56v1.4H3.69v-6.9h4.76v1.4h-3.17v1.34h2.72v1.29h-2.72v1.47h3.26Z"/>
      <path class="cls-6" d="M10.48,72.96v-6.9h4.69v1.4h-3.09v1.49h2.55v1.29h-2.55v2.72h-1.59Z"/>
      <path class="cls-6" d="M16.98,72.96v-6.9h4.69v1.4h-3.09v1.49h2.55v1.29h-2.55v2.72h-1.59Z"/>
      <path class="cls-6" d="M28.33,71.56v1.4h-4.85v-6.9h4.76v1.4h-3.17v1.34h2.72v1.29h-2.72v1.47h3.26Z"/>
      <path class="cls-6" d="M29.73,69.45c0-.41.08-.83.23-1.24.16-.41.38-.78.68-1.1.3-.32.66-.59,1.09-.79.43-.2.91-.3,1.46-.3.65,0,1.21.14,1.69.42.48.28.83.64,1.06,1.09l-1.22.86c-.08-.18-.18-.33-.3-.45-.12-.12-.25-.22-.39-.29s-.29-.13-.44-.16c-.15-.03-.29-.04-.44-.04-.3,0-.57.06-.8.18-.23.12-.41.28-.56.48-.15.19-.26.41-.33.66-.07.25-.11.5-.11.75,0,.27.04.53.13.79.08.25.21.48.36.67s.35.35.57.46c.22.11.47.17.75.17.14,0,.29-.02.44-.05.15-.04.3-.09.44-.17.14-.07.27-.17.38-.29.12-.12.21-.27.28-.44l1.3.77c-.1.25-.26.48-.46.68-.2.2-.44.37-.7.51s-.55.24-.85.31c-.3.07-.59.11-.87.11-.5,0-.96-.1-1.38-.31s-.78-.47-1.08-.81-.53-.72-.7-1.15c-.17-.43-.25-.86-.25-1.3Z"/>
      <path class="cls-6" d="M42.98,67.46h-2.1v5.5h-1.59v-5.5h-2.11v-1.4h5.8v1.4Z"/>
      <path class="cls-6" d="M44.73,72.96v-6.9h1.59v6.9h-1.59Z"/>
      <path class="cls-6" d="M49.62,66.06l1.62,4.9,1.6-4.9h1.68l-2.61,6.9h-1.34l-2.64-6.9h1.69Z"/>
      <path class="cls-6" d="M60.99,71.56v1.4h-4.85v-6.9h4.76v1.4h-3.17v1.34h2.72v1.29h-2.72v1.47h3.26Z"/>
      <path class="cls-6" d="M68.36,69.55c0,.15-.03.29-.08.42-.05.13-.13.24-.23.34s-.21.17-.34.23c-.13.05-.27.08-.42.08s-.29-.03-.42-.08c-.13-.05-.24-.13-.34-.23s-.17-.21-.23-.34c-.06-.13-.08-.27-.08-.42s.03-.28.08-.41c.06-.13.13-.24.23-.34.1-.1.21-.17.34-.23.13-.06.27-.09.42-.09s.29.03.42.09c.13.06.24.14.34.23.1.1.17.21.23.34.06.13.08.27.08.41Z"/>
      <path class="cls-6" d="M78.8,71.56v1.4h-4.85v-6.9h4.76v1.4h-3.17v1.34h2.72v1.29h-2.72v1.47h3.26Z"/>
      <path class="cls-6" d="M80.74,72.96v-6.9h4.69v1.4h-3.09v1.49h2.55v1.29h-2.55v2.72h-1.59Z"/>
      <path class="cls-6" d="M87.25,72.96v-6.9h4.69v1.4h-3.09v1.49h2.55v1.29h-2.55v2.72h-1.59Z"/>
      <path class="cls-6" d="M93.75,72.96v-6.9h1.59v6.9h-1.59Z"/>
      <path class="cls-6" d="M97.24,69.45c0-.41.08-.83.23-1.24.16-.41.38-.78.68-1.1.3-.32.66-.59,1.09-.79.43-.2.91-.3,1.46-.3.65,0,1.21.14,1.69.42.48.28.83.64,1.06,1.09l-1.22.86c-.08-.18-.18-.33-.3-.45-.12-.12-.25-.22-.39-.29s-.29-.13-.44-.16c-.15-.03-.29-.04-.44-.04-.3,0-.57.06-.8.18-.23.12-.41.28-.56.48-.15.19-.26.41-.33.66-.07.25-.11.5-.11.75,0,.27.04.53.13.79.08.25.21.48.36.67s.35.35.57.46c.22.11.47.17.75.17.14,0,.29-.02.44-.05.15-.04.3-.09.44-.17.14-.07.27-.17.38-.29.12-.12.21-.27.28-.44l1.3.77c-.1.25-.26.48-.46.68-.2.2-.44.37-.7.51s-.55.24-.85.31c-.3.07-.59.11-.87.11-.5,0-.96-.1-1.38-.31s-.78-.47-1.08-.81-.53-.72-.7-1.15c-.17-.43-.25-.86-.25-1.3Z"/>
      <path class="cls-6" d="M105.3,72.96v-6.9h1.59v6.9h-1.59Z"/>
      <path class="cls-6" d="M114.03,71.56v1.4h-4.85v-6.9h4.76v1.4h-3.17v1.34h2.72v1.29h-2.72v1.47h3.26Z"/>
      <path class="cls-6" d="M117.57,69.01v3.95h-1.59v-6.9h1.24l3.22,4.05v-4.05h1.59v6.9h-1.28l-3.18-3.95Z"/>
      <path class="cls-6" d="M129.59,67.46h-2.1v5.5h-1.59v-5.5h-2.11v-1.4h5.8v1.4Z"/>
      <path class="cls-6" d="M136.49,69.55c0,.15-.03.29-.08.42-.05.13-.13.24-.23.34-.1.1-.21.17-.34.23-.13.05-.27.08-.42.08s-.29-.03-.42-.08c-.13-.05-.24-.13-.34-.23-.1-.1-.17-.21-.23-.34-.05-.13-.08-.27-.08-.42s.03-.28.08-.41c.06-.13.13-.24.23-.34.1-.1.21-.17.34-.23.13-.06.27-.09.42-.09s.29.03.42.09c.13.06.24.14.34.23s.17.21.23.34c.05.13.08.27.08.41Z"/>
      <path class="cls-6" d="M142.08,72.96v-6.9h3.11c.32,0,.62.07.9.2.28.14.51.31.71.54.2.22.36.47.47.75.11.28.17.56.17.85,0,.21-.03.42-.08.62-.05.2-.13.38-.22.56-.1.17-.21.33-.35.47-.14.14-.3.26-.47.36l1.52,2.57h-1.8l-1.32-2.23h-1.04v2.23h-1.59ZM143.67,69.34h1.46c.19,0,.35-.09.49-.27.14-.18.2-.41.2-.69s-.08-.51-.23-.68c-.16-.17-.32-.25-.51-.25h-1.41v1.89Z"/>
      <path class="cls-6" d="M154.41,71.56v1.4h-4.85v-6.9h4.76v1.4h-3.17v1.34h2.72v1.29h-2.72v1.47h3.26Z"/>
      <path class="cls-6" d="M160.35,68.08s-.09-.08-.2-.15c-.12-.07-.26-.15-.44-.22-.17-.08-.37-.15-.57-.2-.21-.06-.42-.09-.62-.09-.57,0-.86.19-.86.57,0,.12.03.21.09.29.06.08.15.15.27.21s.27.12.45.17c.18.05.39.11.63.17.33.09.63.19.89.3.27.11.49.24.68.4.18.16.33.35.43.58s.15.5.15.82c0,.39-.07.72-.22.99-.15.27-.34.49-.58.65-.24.17-.51.29-.83.36-.31.08-.63.11-.96.11-.25,0-.51-.02-.78-.06s-.52-.1-.78-.17-.5-.16-.73-.27c-.24-.1-.46-.22-.66-.36l.7-1.39s.11.09.25.18.32.18.53.27c.21.09.45.17.7.24.26.07.52.11.79.11.56,0,.85-.17.85-.52,0-.13-.04-.24-.13-.32s-.2-.16-.35-.23c-.15-.07-.33-.13-.53-.19s-.43-.12-.67-.19c-.32-.1-.59-.2-.83-.32-.23-.11-.43-.24-.58-.39-.15-.15-.27-.32-.34-.51s-.11-.42-.11-.68c0-.36.07-.68.2-.96.14-.28.32-.51.55-.71s.5-.33.81-.43.63-.15.98-.15c.24,0,.48.02.71.07.23.05.46.1.67.18s.41.15.6.24c.18.09.35.18.51.27l-.7,1.32Z"/>
      <path class="cls-6" d="M163.16,72.96v-6.9h1.59v6.9h-1.59Z"/>
      <path class="cls-6" d="M167.05,72.96v-6.9h1.59v5.5h3.34v1.4h-4.94Z"/>
      <path class="cls-6" d="M173.7,72.96v-6.9h1.59v6.9h-1.59Z"/>
      <path class="cls-6" d="M182.44,71.56v1.4h-4.85v-6.9h4.76v1.4h-3.17v1.34h2.72v1.29h-2.72v1.47h3.26Z"/>
      <path class="cls-6" d="M185.98,69.01v3.95h-1.59v-6.9h1.24l3.22,4.05v-4.05h1.59v6.9h-1.28l-3.18-3.95Z"/>
      <path class="cls-6" d="M197.99,67.46h-2.1v5.5h-1.59v-5.5h-2.11v-1.4h5.8v1.4Z"/>
    </g>
    <g>
      <path class="cls-4" d="M2.43,88.98v-5.75h2.59c.27,0,.52.06.75.17s.43.26.6.45.3.39.39.62c.09.23.14.47.14.7,0,.18-.02.35-.06.51-.04.17-.1.32-.19.47s-.18.28-.3.39-.25.21-.39.3l1.26,2.14h-1.5l-1.1-1.86h-.87v1.86h-1.33ZM3.75,85.97h1.21c.16,0,.29-.07.4-.22.11-.15.17-.34.17-.57s-.06-.43-.19-.57c-.13-.14-.27-.21-.42-.21h-1.17v1.57Z"/>
      <path class="cls-4" d="M9.65,89.06c-.36,0-.68-.06-.97-.18-.28-.12-.52-.28-.72-.48-.19-.2-.34-.44-.44-.71s-.15-.55-.15-.84.05-.57.15-.84.25-.5.44-.7c.19-.2.43-.37.72-.49.28-.12.61-.18.97-.18s.68.06.96.18c.28.12.52.28.71.49.19.2.34.44.45.7s.15.55.15.84-.05.57-.15.84-.25.5-.44.71c-.19.2-.43.36-.72.48-.28.12-.61.18-.97.18ZM8.7,86.86c0,.33.09.6.27.81s.41.3.68.3c.13,0,.26-.03.37-.08.11-.05.21-.13.3-.23.08-.1.15-.21.2-.35.05-.14.07-.29.07-.45,0-.33-.09-.6-.27-.81-.18-.2-.4-.3-.67-.3-.14,0-.26.03-.38.08-.12.05-.22.13-.3.23-.08.1-.15.21-.2.35s-.07.29-.07.45Z"/>
      <path class="cls-4" d="M15.26,88.75c-.18.08-.38.15-.61.21-.23.07-.46.1-.69.1-.16,0-.31-.02-.46-.06-.14-.04-.27-.1-.38-.19-.11-.09-.19-.21-.25-.35-.06-.15-.09-.32-.09-.53v-2.22h-.54v-.98h.54v-1.35h1.3v1.35h.87v.98h-.87v1.77c0,.14.04.24.11.3.07.06.16.09.27.09.1,0,.2-.02.3-.05s.19-.07.27-.11l.25,1.03Z"/>
      <path class="cls-4" d="M17.69,89.06c-.36,0-.68-.06-.97-.18-.28-.12-.52-.28-.72-.48-.19-.2-.34-.44-.44-.71s-.15-.55-.15-.84.05-.57.15-.84.25-.5.44-.7c.19-.2.43-.37.72-.49.28-.12.61-.18.97-.18s.68.06.96.18c.28.12.52.28.71.49.19.2.34.44.45.7s.15.55.15.84-.05.57-.15.84-.25.5-.44.71c-.19.2-.43.36-.72.48-.28.12-.61.18-.97.18ZM16.74,86.86c0,.33.09.6.27.81s.41.3.68.3c.13,0,.26-.03.37-.08.11-.05.21-.13.3-.23.08-.1.15-.21.2-.35.05-.14.07-.29.07-.45,0-.33-.09-.6-.27-.81-.18-.2-.4-.3-.67-.3-.14,0-.26.03-.38.08-.12.05-.22.13-.3.23-.08.1-.15.21-.2.35s-.07.29-.07.45Z"/>
      <path class="cls-4" d="M23.3,85.84c-.31,0-.6.06-.85.15-.25.1-.44.24-.55.44v2.55h-1.3v-4.25h1.19v.86c.15-.29.33-.51.56-.67s.47-.25.73-.25h.13s.05,0,.08,0v1.17Z"/>
      <path class="cls-4" d="M25.13,89.06c-.44,0-.77-.14-.99-.41s-.34-.67-.34-1.2v-2.72h1.3v2.44c0,.26.05.46.15.59s.25.21.44.21c.17,0,.34-.05.5-.14s.31-.25.43-.48v-2.62h1.3v2.79c0,.13.02.22.06.27.04.05.11.08.21.09v1.09c-.12.03-.23.04-.32.05-.09,0-.17.01-.23.01-.46,0-.73-.18-.79-.54l-.02-.26c-.19.28-.44.49-.73.62-.29.13-.61.2-.97.2Z"/>
      <path class="cls-4" d="M30.13,89.06c-.21,0-.41-.03-.59-.1-.18-.07-.34-.16-.47-.28-.13-.12-.23-.26-.31-.43s-.11-.34-.11-.54c0-.21.04-.4.13-.58.09-.17.21-.32.38-.45.16-.12.35-.22.58-.29.22-.07.47-.11.74-.11.18,0,.35.01.52.04.17.03.31.07.44.13v-.19c0-.49-.28-.74-.85-.74-.23,0-.45.04-.66.12-.21.08-.43.2-.66.35l-.38-.81c.28-.18.57-.32.87-.41.3-.09.62-.14.96-.14.64,0,1.14.15,1.49.45.35.3.53.75.53,1.33v1.09c0,.13.02.22.06.27.04.05.11.08.21.09v1.09c-.11.03-.22.04-.31.05-.09,0-.18.01-.25.01-.24,0-.43-.05-.55-.14-.12-.09-.2-.23-.23-.4l-.02-.19c-.19.24-.41.43-.68.56-.26.13-.54.19-.83.19ZM30.51,88.13c.14,0,.28-.02.41-.07.13-.05.24-.11.33-.19.12-.1.19-.2.19-.31v-.41c-.11-.04-.24-.08-.37-.1-.13-.02-.25-.04-.37-.04-.24,0-.43.05-.59.16-.15.11-.23.25-.23.42,0,.16.06.29.18.38.12.1.27.15.45.15Z"/>
      <path class="cls-4" d="M33.8,90.07l.25-1.11h-.4v-1.3h1.09v1.3l-.38,1.11h-.57Z"/>
      <path class="cls-4" d="M38.96,85.69v3.29h-1.33v-5.75h1.04l2.68,3.38v-3.38h1.33v5.75h-1.07l-2.65-3.29Z"/>
      <path class="cls-4" d="M45.65,89.06c-.36,0-.68-.06-.96-.17-.28-.12-.52-.27-.72-.47-.2-.2-.35-.43-.45-.69s-.15-.54-.15-.82c0-.31.05-.6.15-.87.1-.27.25-.51.45-.72.19-.21.43-.37.72-.49.28-.12.61-.18.97-.18s.68.06.96.18c.28.12.52.28.71.48.19.2.34.44.44.7s.15.54.15.83c0,.08,0,.15,0,.22s-.01.14-.02.19h-3.14c.02.29.13.5.31.65.19.15.4.22.64.22.19,0,.37-.05.55-.14.18-.09.29-.22.35-.37l1.1.31c-.17.33-.43.61-.78.82-.35.21-.77.32-1.26.32ZM46.55,86.45c-.03-.27-.12-.48-.29-.64-.17-.16-.38-.24-.62-.24s-.46.08-.63.24c-.16.16-.26.37-.29.64h1.83Z"/>
      <path class="cls-4" d="M53.63,84.73h1.23l-1.76,4.25h-1.06l-.66-1.75-.66,1.75h-1.06l-1.76-4.25h1.22l1.16,3.05.4-1.16-.75-1.9h1.04l.41,1.28.41-1.28h1.04l-.75,1.9.4,1.16,1.15-3.05Z"/>
      <path class="cls-4" d="M56.73,87.98l3-3.59h-2.88v-1.17h4.41v1l-2.85,3.59h2.88v1.17h-4.56v-1Z"/>
      <path class="cls-4" d="M63.9,89.06c-.36,0-.68-.06-.96-.17-.28-.12-.52-.27-.72-.47-.2-.2-.35-.43-.45-.69s-.15-.54-.15-.82c0-.31.05-.6.15-.87.1-.27.25-.51.45-.72.19-.21.43-.37.72-.49.28-.12.61-.18.97-.18s.68.06.96.18c.28.12.52.28.71.48.19.2.34.44.44.7s.15.54.15.83c0,.08,0,.15,0,.22s-.01.14-.02.19h-3.14c.02.29.13.5.31.65.19.15.4.22.64.22.19,0,.37-.05.55-.14.18-.09.29-.22.35-.37l1.1.31c-.17.33-.43.61-.78.82-.35.21-.77.32-1.26.32ZM64.8,86.45c-.03-.27-.12-.48-.29-.64-.17-.16-.38-.24-.62-.24s-.46.08-.63.24c-.16.16-.26.37-.29.64h1.83Z"/>
      <path class="cls-4" d="M67.96,89.06c-.21,0-.41-.03-.59-.1-.18-.07-.34-.16-.47-.28-.13-.12-.23-.26-.31-.43s-.11-.34-.11-.54c0-.21.04-.4.13-.58.09-.17.21-.32.38-.45.16-.12.35-.22.58-.29.22-.07.47-.11.74-.11.18,0,.35.01.52.04.17.03.31.07.44.13v-.19c0-.49-.28-.74-.85-.74-.23,0-.45.04-.66.12-.21.08-.43.2-.66.35l-.38-.81c.28-.18.57-.32.87-.41.3-.09.62-.14.96-.14.64,0,1.14.15,1.49.45.35.3.53.75.53,1.33v1.09c0,.13.02.22.06.27.04.05.11.08.21.09v1.09c-.11.03-.22.04-.31.05-.09,0-.18.01-.25.01-.24,0-.43-.05-.55-.14-.12-.09-.2-.23-.23-.4l-.02-.19c-.19.24-.41.43-.68.56-.26.13-.54.19-.83.19ZM68.34,88.13c.14,0,.28-.02.41-.07.13-.05.24-.11.33-.19.12-.1.19-.2.19-.31v-.41c-.11-.04-.24-.08-.37-.1-.13-.02-.25-.04-.37-.04-.24,0-.43.05-.59.16-.15.11-.23.25-.23.42,0,.16.06.29.18.38.12.1.27.15.45.15Z"/>
      <path class="cls-4" d="M71.49,83.07h1.3v4.4c0,.32.14.49.41.49.06,0,.14,0,.21-.03.08-.02.15-.05.21-.08l.17.97c-.16.08-.35.13-.56.18-.21.04-.41.06-.59.06-.37,0-.66-.1-.86-.29s-.3-.48-.3-.84v-4.85Z"/>
      <path class="cls-4" d="M75.42,89.06c-.21,0-.41-.03-.59-.1-.18-.07-.34-.16-.47-.28-.13-.12-.23-.26-.31-.43s-.11-.34-.11-.54c0-.21.04-.4.13-.58.09-.17.21-.32.38-.45.16-.12.35-.22.58-.29.22-.07.47-.11.74-.11.18,0,.35.01.52.04.17.03.31.07.44.13v-.19c0-.49-.28-.74-.85-.74-.23,0-.45.04-.66.12-.21.08-.43.2-.66.35l-.38-.81c.28-.18.57-.32.87-.41.3-.09.62-.14.96-.14.64,0,1.14.15,1.49.45.35.3.53.75.53,1.33v1.09c0,.13.02.22.06.27.04.05.11.08.21.09v1.09c-.11.03-.22.04-.31.05-.09,0-.18.01-.25.01-.24,0-.43-.05-.55-.14-.12-.09-.2-.23-.23-.4l-.02-.19c-.19.24-.41.43-.68.56-.26.13-.54.19-.83.19ZM75.8,88.13c.14,0,.28-.02.41-.07.13-.05.24-.11.33-.19.12-.1.19-.2.19-.31v-.41c-.11-.04-.24-.08-.37-.1-.13-.02-.25-.04-.37-.04-.24,0-.43.05-.59.16-.15.11-.23.25-.23.42,0,.16.06.29.18.38.12.1.27.15.45.15Z"/>
      <path class="cls-4" d="M83.06,88.98h-1.3v-2.39c0-.28-.05-.48-.16-.61-.11-.13-.24-.19-.42-.19-.09,0-.18.02-.28.06s-.18.09-.27.16c-.09.07-.16.15-.23.24s-.12.19-.16.3v2.44h-1.3v-4.25h1.17v.71c.16-.25.38-.45.66-.59.29-.14.62-.21.99-.21.28,0,.5.05.66.15.17.1.3.23.39.39s.15.33.18.52c.03.19.04.37.04.55v2.72Z"/>
      <path class="cls-4" d="M85.69,89.06c-.29,0-.56-.06-.81-.17-.25-.11-.46-.27-.64-.47-.18-.2-.32-.43-.42-.7-.1-.27-.15-.56-.15-.88s.05-.6.14-.87c.09-.27.22-.5.39-.7.17-.2.37-.35.6-.47.23-.11.48-.17.76-.17.3,0,.57.07.81.21s.43.33.55.57v-2.36h1.3v4.46c0,.13.02.22.06.27.04.05.11.08.21.09v1.09c-.12.03-.22.04-.31.05-.09,0-.17.01-.24.01-.23,0-.41-.05-.55-.14-.14-.09-.22-.23-.24-.41l-.02-.22c-.15.26-.35.46-.61.59-.26.13-.53.19-.82.19ZM86.03,87.97c.18,0,.35-.05.51-.16.17-.11.29-.25.38-.43v-.89c-.08-.22-.21-.39-.39-.53-.18-.14-.37-.21-.56-.21-.14,0-.27.03-.38.09-.12.06-.22.14-.3.25s-.15.22-.2.36c-.05.13-.07.28-.07.43s.03.3.08.44.12.25.21.35c.09.1.2.17.32.23s.26.08.41.08Z"/>
      <path class="cls-4" d="M93.03,86.14c0,.12-.02.24-.07.35-.05.11-.11.2-.19.28s-.18.14-.28.19-.22.07-.35.07-.24-.02-.35-.07c-.11-.05-.2-.11-.28-.19s-.14-.17-.19-.28c-.05-.11-.07-.22-.07-.35,0-.12.02-.23.07-.34.05-.11.11-.2.19-.28s.18-.15.28-.19c.11-.05.22-.07.35-.07s.24.02.35.07c.11.05.2.11.28.19s.14.18.19.28c.05.11.07.22.07.34Z"/>
      <path class="cls-4" d="M95.83,88.98c0-.25.02-.48.06-.68.04-.2.1-.38.19-.55.09-.16.22-.32.37-.46.16-.14.35-.28.59-.41.25-.14.47-.26.64-.35.17-.09.3-.17.4-.24.1-.07.17-.13.21-.19.04-.06.06-.12.06-.2,0-.15-.05-.27-.16-.36-.11-.09-.26-.14-.46-.14-.23,0-.42.05-.59.17-.17.11-.33.25-.49.43l-.83-.96c.09-.1.2-.19.35-.28.15-.09.31-.17.49-.25.18-.07.38-.13.6-.17s.45-.06.68-.06c.58,0,1.03.13,1.34.38s.47.6.47,1.03c0,.18-.03.34-.08.48-.06.14-.13.27-.22.38s-.19.21-.31.29c-.11.08-.23.16-.35.23-.08.05-.18.11-.29.17-.11.07-.23.13-.34.2-.11.07-.21.14-.31.2-.09.07-.17.13-.21.18h2.2v1.17h-4.03Z"/>
      <path class="cls-4" d="M100.46,86.37c0-.28.05-.54.16-.79.11-.25.26-.46.45-.64s.41-.32.67-.43c.26-.1.54-.16.84-.16.33,0,.63.06.9.19.26.12.49.3.67.54s.32.52.42.86c.1.34.15.72.15,1.15,0,.5-.05.95-.16,1.34s-.25.72-.45.99c-.19.27-.43.47-.71.61-.28.14-.6.21-.95.21s-.69-.07-.99-.22c-.31-.15-.57-.36-.81-.63l.73-.83c.13.17.3.31.49.41.19.1.39.15.6.15.32,0,.57-.11.76-.34.19-.23.28-.55.3-.96-.11.15-.25.26-.43.34s-.39.12-.62.12c-.29,0-.55-.05-.8-.15-.25-.1-.46-.23-.64-.4-.18-.17-.32-.37-.42-.6s-.15-.48-.15-.75ZM102.58,85.45c-.12,0-.23.02-.34.07s-.2.12-.28.2c-.08.08-.15.18-.19.3-.05.11-.07.23-.07.36s.02.24.07.34c.05.11.11.2.19.28.08.08.18.14.28.19.11.05.22.07.35.07s.23-.02.34-.07c.11-.05.2-.11.28-.19.08-.08.15-.17.19-.28.05-.1.07-.22.07-.34s-.02-.24-.07-.36c-.05-.11-.11-.21-.19-.3-.08-.08-.18-.15-.28-.2-.11-.05-.22-.07-.34-.07Z"/>
      <path class="cls-4" d="M106.98,87.63c.05.04.17.1.34.16.17.07.38.1.61.1.2,0,.36-.03.48-.1.12-.07.21-.17.28-.31s.11-.32.13-.54c.02-.22.03-.48.03-.78v-2.92h1.33v2.92c0,.44-.02.84-.07,1.19-.05.36-.15.67-.3.92-.15.25-.38.45-.68.59-.3.14-.69.21-1.19.21s-.9-.12-1.25-.36l.29-1.08Z"/>
      <path class="cls-4" d="M112.39,89.06c-.44,0-.77-.14-.99-.41-.22-.27-.34-.67-.34-1.2v-2.72h1.3v2.44c0,.26.05.46.15.59s.25.21.44.21c.17,0,.34-.05.5-.14s.31-.25.43-.48v-2.62h1.3v2.79c0,.13.02.22.06.27.04.05.11.08.21.09v1.09c-.12.03-.23.04-.32.05-.09,0-.17.01-.24.01-.46,0-.73-.18-.79-.54l-.02-.26c-.19.28-.44.49-.72.62-.29.13-.61.2-.97.2Z"/>
      <path class="cls-4" d="M120.28,88.98h-1.3v-2.39c0-.28-.05-.48-.16-.61-.11-.13-.25-.19-.42-.19-.09,0-.18.02-.28.06s-.18.09-.27.16c-.09.07-.16.15-.23.24s-.12.19-.16.3v2.44h-1.3v-4.25h1.17v.71c.16-.25.38-.45.66-.59s.62-.21.99-.21c.28,0,.5.05.66.15.17.1.3.23.39.39s.15.33.18.52c.03.19.04.37.04.55v2.72Z"/>
      <path class="cls-4" d="M123.17,89.06c-.36,0-.68-.06-.96-.17-.28-.12-.52-.27-.72-.47-.2-.2-.35-.43-.45-.69s-.15-.54-.15-.82c0-.31.05-.6.15-.87.1-.27.25-.51.45-.72.19-.21.43-.37.72-.49.28-.12.61-.18.97-.18s.68.06.96.18c.28.12.52.28.71.48.19.2.34.44.44.7.1.26.15.54.15.83,0,.08,0,.15,0,.22,0,.07-.01.14-.02.19h-3.14c.02.29.13.5.31.65.19.15.4.22.64.22.19,0,.37-.05.55-.14.17-.09.29-.22.35-.37l1.1.31c-.17.33-.43.61-.78.82-.35.21-.77.32-1.26.32ZM124.07,86.45c-.03-.27-.12-.48-.29-.64-.17-.16-.38-.24-.62-.24s-.46.08-.63.24-.26.37-.29.64h1.83Z"/>
      <path class="cls-4" d="M127.91,87.34v-1.17h4.11v1.17h-4.11Z"/>
      <path class="cls-4" d="M134.66,88.98c0-.25.02-.48.06-.68.04-.2.1-.38.19-.55.09-.16.22-.32.37-.46.16-.14.35-.28.59-.41.25-.14.47-.26.64-.35s.3-.17.41-.24c.1-.07.17-.13.21-.19.04-.06.06-.12.06-.2,0-.15-.05-.27-.16-.36s-.26-.14-.46-.14c-.23,0-.42.05-.59.17-.17.11-.33.25-.49.43l-.83-.96c.09-.1.2-.19.35-.28.15-.09.31-.17.49-.25.18-.07.38-.13.6-.17s.45-.06.68-.06c.58,0,1.03.13,1.34.38s.47.6.47,1.03c0,.18-.03.34-.08.48-.06.14-.13.27-.22.38s-.19.21-.31.29c-.11.08-.23.16-.35.23-.08.05-.18.11-.29.17-.11.07-.22.13-.34.2-.11.07-.21.14-.31.2s-.17.13-.21.18h2.2v1.17h-4.03Z"/>
      <path class="cls-4" d="M141.03,87.63c.05.04.17.1.34.16.17.07.38.1.61.1.2,0,.36-.03.48-.1.12-.07.21-.17.28-.31s.11-.32.13-.54c.02-.22.03-.48.03-.78v-2.92h1.33v2.92c0,.44-.02.84-.07,1.19-.05.36-.15.67-.3.92-.15.25-.38.45-.68.59-.3.14-.69.21-1.19.21s-.9-.12-1.25-.36l.29-1.08Z"/>
      <path class="cls-4" d="M146.44,89.06c-.44,0-.77-.14-.99-.41-.22-.27-.34-.67-.34-1.2v-2.72h1.3v2.44c0,.26.05.46.15.59s.25.21.44.21c.17,0,.34-.05.5-.14s.31-.25.43-.48v-2.62h1.3v2.79c0,.13.02.22.06.27.04.05.11.08.21.09v1.09c-.12.03-.23.04-.32.05-.09,0-.17.01-.24.01-.46,0-.73-.18-.79-.54l-.02-.26c-.19.28-.44.49-.72.62-.29.13-.61.2-.97.2Z"/>
      <path class="cls-4" d="M150.22,83.07h1.3v4.4c0,.32.14.49.41.49.06,0,.14,0,.21-.03.08-.02.15-.05.21-.08l.17.97c-.16.08-.35.13-.56.18-.21.04-.41.06-.59.06-.37,0-.66-.1-.86-.29-.2-.19-.3-.48-.3-.84v-4.85Z"/>
      <path class="cls-4" d="M152.89,89.62c.11.04.21.06.3.08s.18.02.25.02c.16,0,.28-.05.37-.16.09-.11.16-.3.23-.58l-1.62-4.25h1.34l.99,3.14.85-3.14h1.21l-1.62,4.94c-.11.35-.32.64-.61.85s-.64.33-1.04.33c-.11,0-.22,0-.33-.03-.11-.02-.22-.05-.34-.09v-1.11Z"/>
      <path class="cls-4" d="M158.87,88.98c0-.25.02-.48.06-.68.04-.2.1-.38.19-.55.09-.16.22-.32.37-.46.16-.14.35-.28.59-.41.25-.14.47-.26.64-.35.17-.09.3-.17.4-.24s.17-.13.21-.19.06-.12.06-.2c0-.15-.05-.27-.16-.36-.11-.09-.26-.14-.46-.14-.23,0-.42.05-.59.17-.17.11-.33.25-.49.43l-.83-.96c.09-.1.2-.19.35-.28s.31-.17.49-.25c.18-.07.38-.13.6-.17s.45-.06.68-.06c.58,0,1.03.13,1.34.38s.47.6.47,1.03c0,.18-.03.34-.08.48-.06.14-.13.27-.22.38s-.19.21-.31.29c-.11.08-.23.16-.35.23-.08.05-.18.11-.29.17-.11.07-.23.13-.34.2-.11.07-.21.14-.31.2-.09.07-.17.13-.21.18h2.2v1.17h-4.03Z"/>
      <path class="cls-4" d="M167.85,86.61c0,.36-.05.68-.16.98-.11.3-.26.56-.45.78-.19.22-.41.39-.67.51s-.54.18-.84.18-.58-.06-.84-.18-.48-.29-.67-.51c-.19-.22-.34-.48-.44-.78-.11-.3-.16-.63-.16-.98s.05-.68.16-.98c.1-.3.25-.56.44-.78.19-.22.41-.39.67-.51s.54-.19.84-.19.58.06.84.19.48.3.67.51c.19.22.34.48.45.78.11.3.16.63.16.98ZM166.55,86.61c0-.38-.08-.68-.23-.92-.15-.23-.35-.35-.58-.35-.25,0-.45.12-.6.35-.15.24-.22.54-.22.92s.07.68.22.92.35.35.6.35.43-.12.58-.35.23-.54.23-.92Z"/>
      <path class="cls-4" d="M168.54,88.98c0-.25.02-.48.06-.68.04-.2.1-.38.19-.55.09-.16.22-.32.37-.46.16-.14.35-.28.59-.41.25-.14.47-.26.64-.35.17-.09.3-.17.4-.24s.17-.13.21-.19.06-.12.06-.2c0-.15-.05-.27-.16-.36-.11-.09-.26-.14-.46-.14-.23,0-.42.05-.59.17-.17.11-.33.25-.49.43l-.83-.96c.09-.1.2-.19.35-.28s.31-.17.49-.25c.18-.07.38-.13.6-.17s.45-.06.68-.06c.58,0,1.03.13,1.34.38s.47.6.47,1.03c0,.18-.03.34-.08.48-.06.14-.13.27-.22.38s-.19.21-.31.29c-.11.08-.23.16-.35.23-.08.05-.18.11-.29.17-.11.07-.23.13-.34.2-.11.07-.21.14-.31.2-.09.07-.17.13-.21.18h2.2v1.17h-4.03Z"/>
      <path class="cls-4" d="M175.3,86.37c.28,0,.53.05.76.14s.43.22.6.38.3.36.4.58c.09.23.14.48.14.75,0,.29-.05.56-.16.8-.11.24-.26.45-.45.62s-.42.31-.68.4c-.26.09-.56.14-.87.14-.42,0-.8-.08-1.13-.25-.33-.17-.59-.4-.76-.7l.72-.8c.16.19.34.34.55.45s.42.17.64.17c.25,0,.46-.07.61-.22.15-.15.23-.34.23-.58s-.07-.42-.21-.56c-.14-.14-.32-.21-.55-.21-.15,0-.28.03-.41.1-.12.06-.22.16-.3.28h-1.13s.01-.06.03-.17.05-.24.08-.41.06-.36.11-.56c.04-.21.08-.42.12-.64.1-.51.21-1.08.33-1.72h2.86v1.18h-1.92l-.16.98s.1-.07.19-.1c.09-.03.22-.04.38-.04Z"/>
    </g>
    <g>
      <path class="cls-3" d="M170.84,56.88c-2.03-16.01-10.21-30.64-22.87-40.76-13.33-10.65-30.44-15.35-47.34-13.01,42.57-12.05,86.82,11.93,100.21,53.76h-30.01Z"/>
      <path class="cls-2" d="M69.66,26.91c12.68-16.49,28.91-23.39,48.7-20.72-14.07,1.97-24.23,8.88-30.47,20.72h-18.23Z"/>
      <path class="cls-2" d="M93.57,26.91c6.34-10.08,15.41-15.18,27.19-15.29-8.44,2.45-14.08,7.55-16.93,15.29h-10.26Z"/>
    </g>
    <line class="cls-1" x1="125.58" y1="60.96" y2="60.96"/>
    <line class="cls-1" x1="201.15" y1="77.97" y2="77.97"/>
    <line class="cls-1" x1="201.15" y1="60.96" x2="139.89" y2="60.96"/>
  </g>
  <circle class="cls-4" cx="67.25" cy="69.6" r="1.58"/>
  <circle class="cls-4" cx="135.46" cy="69.6" r="1.58"/>
</svg>