<?xml version="1.0" encoding="UTF-8"?><svg id="a" xmlns="http://www.w3.org/2000/svg" width="283.46" height="135.24" viewBox="0 0 283.46 135.24"><path d="M21.18,1.18c0,7.78,.1,10.57-2.96,13.7-2.27,2.33-6.24,3.11-9.14,2.03-.98-.35-1.87-.91-2.63-1.68-3.01-3.08-2.66-8.44,.37-11.53C10.6-.18,15.69,0,21.18,0V1.18Z" fill="#89c925"/><g><path d="M74.95,58.54c3.28,1.97,8.18,3.12,12.24,3.03V20.81h-13.37v26.87c-2.15,1.75-5.27,2.85-7.69,2.85-3.29-.07-3.93-1.81-4.03-5.08V20.81h-13.37v26.83c0,4.46,1.01,8.23,3.24,10.89,2.22,2.68,5.64,4.16,10.19,4.15,4.46,0,8.73-1.31,12.8-4.15Z" fill="#373a36"/><path d="M106.09,23.84c-3.28-1.97-8.18-3.13-12.24-3.03V61.56h13.37l.03-26.9c1.72-1.65,5.21-3.05,9.93-2.77l2.58-11.83c-6.98-.76-12.15,2.67-13.66,3.79Z" fill="#373a36"/><g><path d="M220.12,19.67c-13.45,.02-21.28,9.19-21.3,21.38,0,6.16,1.63,11.55,5.07,15.42,3.45,3.87,8.68,6.15,15.67,6.14,13.44-.02,21.27-9.2,21.29-21.39,0-6.15-1.63-11.54-5.07-15.41-3.45-3.87-8.68-6.14-15.67-6.14Zm-.4,32.16c-5.51-.01-7.07-4.87-7.12-10.85,.06-5.87,1.82-10.53,7.37-10.53,5.51,0,7.06,4.71,7.12,10.69-.06,5.87-1.84,10.67-7.37,10.69Z" fill="#373a36"/><path d="M257.24,23.74c-3.28-1.97-8.18-3.13-12.24-3.03V61.47h13.37v-26.87c2.15-1.75,5.27-2.85,7.69-2.84,3.29,.07,3.93,1.81,4.03,5.08v24.64h13.37v-26.83c0-4.46-1.01-8.23-3.24-10.9-2.22-2.68-5.64-4.16-10.19-4.15-4.46,0-8.73,1.31-12.8,4.15Z" fill="#373a36"/><path d="M143.39,51.75c-4.51-.06-8.55-2.42-9.74-6.76h25.52v-4c0-5.74-.81-11.53-5.03-16.01-3.12-3.37-7.68-5.39-13.03-5.38-12.78,.02-21.61,8.59-21.63,21.46,0,6.63,2.1,12.04,5.89,15.78,3.79,3.74,9.25,5.78,15.83,5.78,7.46,0,13.35-2.04,17.6-3.72l-2.81-9.55c-5.71,1.76-10.06,2.43-12.6,2.4Zm-3.01-21.54c3.59,0,5.39,2.8,5.63,5.87h-12.23c.75-3.29,3.13-5.87,6.59-5.87Z" fill="#373a36"/><path d="M185.37,51.92c-5.26-.05-8.52-3.56-8.58-10.78,.07-6.81,3.13-10.56,9.15-10.61,2.1,0,4.56,.4,9.48,2.42l2.25-10.32s-5.74-2.96-13.27-2.96c-6.58,0-11.96,2.14-15.66,6.02-3.71,3.86-5.72,9.41-5.72,16.1,0,6.53,1.93,11.76,5.49,15.34,3.56,3.59,8.71,5.49,15,5.48h.07c4.28,0,8.52-.39,14.85-3.35-.54-1.8-2.25-7.55-2.95-9.85-3.1,1.4-6.68,2.53-10.11,2.5Z" fill="#373a36"/></g><path d="M45.83,61.4c-3.49-4.15-3.79-9.93-3.79-14.21l-.02-26.42H24.41c-7.2,0-13.84,2.18-18.64,7.01C2.22,31.36,.17,36.57,.01,41.7c-.03,.9,0,1.01,0,1.06,.06,5.56,2,10.82,5.74,14.6,3.57,3.6,8.4,5.38,13.59,5.38h1.23c4.27,0,8.53-1.16,13.02-4.3,3.26,1.99,8.16,3.16,12.24,3.08v-.11Zm-18.16-13.67c-2.27,2.33-6.24,3.11-9.14,2.03-.98-.35-1.87-.91-2.63-1.68-3.01-3.08-2.66-8.44,.37-11.53,3.78-3.88,8.87-3.69,14.37-3.69v1.18c0,7.78,.1,10.57-2.96,13.7Z" fill="#373a36"/></g><g><path d="M35.28,106.65c0-.22-.11-.48-.26-.63-.63-.74-1.66-1.03-2.69-1.03-.11,0-.33,.04-.44,.07-1.32,.44-2.27,1.36-4.29,2.91-.29,.26-.44,.29-.48,.29-.11,0-.11-.04-.11-.15,0-.07,.04-.15,.15-.59,.15-.44,.22-.85,.22-1.25,0-.88-.22-1.55-.55-2.06-.11-.18-.7-.4-1.21-.4-.85,0-1.43,.51-1.43,.81,.04,.33,.33,.63,.33,.85,0,.07-.04,.26-.07,.59-.59,2.94-1.62,5.7-2.54,8.5-.44,1.4-1.99,2.61-1.99,3.86,.04,.44,.33,1.03,.7,1.4,.26,.29,.51,.74,1.1,.77,.15,0,.48-.11,.66-.33,.26-.18,.66-.66,.92-1.77,1.55-5.21,4.44-8.57,8.45-10.45,.33-.15,.48-.15,.59-.15,.51,0,1.1,.37,1.65,.37,.29,0,1.29-.48,1.29-1.62Z" fill="#89c925"/><path d="M96.4,120.12c0-.37-.26-.63-.55-.85-.26-.18-1.18-.66-1.29-1.32-.07-.37-.29-.92-.29-1.58,0-.74,.22-2.57,.44-3.31,.55-1.88,1.25-3.27,2.57-5.44,.18-.29,.37-.81,.37-.96,0-.44-.13-.97-.52-1.1-.24-.08-.99-.26-1.54-.26-.48,0-1.45,.08-2.63,1.09-1.89,1.62-5.4,6.23-7.33,9.77-.1,.18-.02,.35-.24,.35-.11,0-.11-.22-.11-.37,0-.11,.27-.88,.52-1.54,1.21-3.02,2.1-4.78,2.61-5.74,.92-1.69,1.95-2.87,2.36-3.31,.63-.66,.81-1.32,.81-1.73,0-.18-.11-.48-.18-.66-.15-.33-.63-.55-1.47-.55-.55,0-.99,.11-1.29,.37-.33,.29-.29,.37-.59,.81-1.62,2.47-2.47,4.23-3.57,6.77-.63,1.43-1.66,3.94-1.8,5-.02,.18-.06,.33-.1,.47-.2-.06-.42-.1-.6-.1-.59,0-.85,.18-1.73,.81-1.47,1.03-1.88,1.25-2.69,1.25-.63,0-.66-.85-.66-1.18,0-.55,.26-1.95,.88-3.61,.51-1.36,.85-2.01,1.17-2.63,.51-.97,2.77-2.58,3.72-6.1,.2-.74,.42-1.66-.07-2.02-.46-.42-1.26-.52-1.63-.52-.7,0-1.54,.72-1.91,1.49-.97,2.01-1.78,3.93-2.59,5.84-2.3,1.44-6.29,4.41-7.98,5.86-.11,0-.15-.04-.15-.15,0-.4,.34-1.07,4.17-7.91,.26-.48,.29-.88,.29-1.43,0-.44-.07-.85-.41-1.29-.77-1.03-2.21-1.58-3.79-1.58-.15,0-3.16,.33-7.03,4.67-1.29,1.44-3.16,3.83-3.61,4.78-.37,.81-1.07,1.84-1.07,3.42,0,.77,.07,.88,.26,1.07,.66,.66,1.44,1.36,2.21,1.69,.33,.15,.74,.22,1.1,.22,1.84,0,3.42-1.77,5.08-3.35,.04-.04,.07-.04,.11-.04s.07,.04,.07,.07l-.56,1.76c-1.53,1.73-6.2,3.69-10.11,9.82-.72,1.04-1.96,3.75-1.66,5.51,.11,.64,.37,1.1,.72,1.37,1.04,.98,3.05,1.3,3.75,1.3,1.4,0,1.99-.72,3-2.15,1.5-2.38,3.82-6.94,5.54-11.64,.27-.75,.43-1.4,1.24-2.28,.5-.54,3.72-3.17,7.35-5.99-.05,.14-.09,.28-.14,.43-.44,1.25-.59,2.06-.59,2.98,0,.51,.04,1.03,.18,1.54,.4,1.36,1.66,2.91,2.76,2.91,1.66,0,3.02-1.07,3.79-1.77l1.22-1.14c.03,.36,.12,.72,.25,.88,.48,.59,2.21,1.69,2.65,1.69,.33,0,1.07-.07,1.36-.4,.52-.55,1.06-.91,1.57-2.15,.83-2.01,2.02-4.08,3.53-6.07,.11-.15,.15-.15,.22-.15s.11,.07,.11,.15c0,.11-.46,2.85-.46,5.02,0,.92,.18,1.69,.63,2.28,.48,.66,.92,.81,1.43,1.29,.44,.4,1.62,.51,1.91,.51,.7,0,.96-.63,.96-.88Zm-32.25,1.05c-2.38,5.25-4.04,8.84-4.89,10.14-.63,.97-.95,1.4-1.63,1.4-1.3,0-2.09-.16-1.83-1.83,.16-1.02,1.6-3.59,3.78-6,1.97-2.17,5.01-4.69,4.57-3.72Zm-3.07-5.68c-.29,.18-.55,.18-.74,.18-.15,0-.44-.15-.44-.29,0-.22,.22-.88,.44-1.4,.77-1.8,3.64-5.26,5.63-7.1,.51-.48,.81-.51,1.55-1.1,.51-.4,1.03-.77,1.69-.77,.22,0,.44,.04,.63,.11,.37,.15,.37,.26,.37,.37,0,.07,.07,.15,.07,.22s-.04,.15-.11,.26c-2.24,3.39-5.78,7.43-9.09,9.53Z" fill="#89c925"/><path d="M158.24,94.88c.48-.7,.77-1.18,.77-2.02,0-.63-1.32-1.21-1.8-1.21s-.63,.15-.85,.44c-3.16,4.16-4.75,8.83-8.57,12.99-.04,.04-.11,.04-.29,.04-.44-.29-1.25-.48-1.73-.7-.26-.11-.63-.18-1.03-.18-.96,0-2.1,.33-2.65,.7-3.09,2.06-6,4.93-7.76,8.28-.26,.49-.46,.93-.64,1.35-.61,.58-1.24,1.2-1.83,1.75-1.31,1.23-3.11,1.97-3.47,.57-.37-1.39,1.2-5.03,1.2-5.03,0,0,1.69-3.65,2.5-4.9,.81-1.25,1.93-1.76,2.15-3.82,.22-2.06-1.3-1.61-2.18-1.39-.88,.22-2.13,1.76-2.72,2.94-.59,1.17-2.72,7.05-2.72,7.05,0,0-2.01,5-.44,7.56,1.39,2.28,4.26,1.32,6.44-.11,.27-.17,.51-.36,.75-.54,.08,.19,.18,.38,.29,.58,.15,.26,1.88,1.14,2.61,1.14,.29,0,.74-.04,1.1-.26,3.61-2.17,6.48-5.78,9.42-9.2,.22-.26,.29-.33,.37-.33s.07,.04,.07,.07c0,.07-.85,1.62-1.14,2.65-.55,1.95-.96,3.53-.96,5.44,0,.77,.07,1.55,.22,2.39,.04,.22,.99,.7,1.33,.7,.92,0,.81-.26,1.32-.77,.11-.11,.15-.15,.15-.26,0-.29-.29-.74-.29-2.06s.59-4.01,2.8-10.19l.59-1.62c1.21-3.35,4.01-7.06,6.14-10.49,.4-.63,.51-1.1,.85-1.58Zm-12.73,13.21c-2.39,3.2-5.11,6.51-8.28,8.98-.33,.26-.55,.26-.77,.44-.15,.11-.22,.15-.37,.15-.18,0-.26-.48-.26-.85,0-.11,.07-.37,.11-.48,1.51-4.05,5-7.95,8.57-9.75,.29-.15,.55-.18,.92-.18,.59,0,.85,.15,.85,.37,0,.63-.33,.74-.77,1.32Z" fill="#89c925"/><path d="M178.24,117.21c0-1.14,.26-2.24,.51-3.27,.7-2.83,2.65-5.59,4.27-7.8,.07-.11,.15-.26,.15-.4,0-.07,0-.11-.07-.22-.29-.44-.85-.48-1.03-.48-.4,0-.74-.33-.88-.7-.07-.22-.37-.55-.55-.74-.66-.66-1.4-1.07-2.24-1.07-.26,0-.55,.04-.81,.11-2.17,.63-4.08,1.58-5.89,2.91-1.1,.81-3.13,2.28-5.3,5.52-.46,.68-.82,1.29-1.12,1.83-1.93,1.36-3.43,3.14-5.76,4.38-1.65,.88-2.21,1.03-2.83,1.03-.37,0-.74-.07-1.14-.29-.33-.18-.88-.96-.88-1.54,0-.11,.04-.18,.22-.29,3.13-1.73,6-4.93,8.54-7.8,.51-.59,.81-.99,1.18-1.73,.44-.88,.85-1.69,.85-2.65,0-1.47-.77-2.13-1.18-2.28-.74-.26-1.25-.4-2.24-.4-1.8,0-3.31,.99-3.94,1.66-2.8,2.98-5.3,6.22-6.33,9.97-.15,.51-.18,.88-.18,1.21,0,.7,.18,2.1,.44,2.83,.4,1.21,1.1,2.13,1.84,2.54,.26,.15,1.55,.74,2.35,1.03,.59,.22,.96,.26,1.4,.26,.48,0,.66,0,1.33-.37,2.62-1.45,4.18-2.62,5.28-3.61,.09,1.17,.62,1.71,.79,1.85,1.73,1.4,2.17,1.66,2.58,1.66,.15,0,.37-.07,.59-.15,1.29-.44,2.47-.96,4.38-2.76l1.99-1.84c.4-.4,.74-.66,.88-.66s.15,.04,.15,.18c0,.11-.15,.74-.15,1.84,0,1.03,.15,2.1,.63,3.16,.22,.48,1.03,.74,1.58,.74,.22,0,.48-.11,.7-.15,.63-.07,.77-.44,.77-.51s-.04-.15-.07-.22c-.55-.85-.77-1.8-.77-2.76Zm-17.62-12.84c.37-.33,.33-.22,.74-.48,.33-.22,.55-.33,.77-.33s.22,.15,.22,.44c0,.66-.29,1.14-.66,1.69-.48,.74-.33,.85-.88,1.51-1.65,1.99-3.46,4.01-5.63,5.67-.11,.07-.18,.11-.26,.11-.04,0-.07-.04-.07-.18,.81-3.27,3.39-6.29,5.78-8.42Zm8.64,12.29c-.66,.63-1.51,1.03-1.8,1.03-.66,0-.81-.55-.81-.99,0-1.07,1.21-3.24,2.76-5.11,2.1-2.54,4.82-4.56,8.28-6.4,.48-.26,1.03-.37,1.14-.37,.63,0,.85,.48,.85,.74,0,.22-.07,.44-.18,.55-.41,.4-.81,.92-1.07,1.4-1.88,3.5-5.74,5.96-9.16,9.16Z" fill="#89c925"/><path d="M190.56,101.94c-.7,0-2.21,.66-3.27,2.35-.88,1.4-1.32,3.5-1.32,4.49,0,.74,.66,6.25,1.18,8.68,.18,.92,.18,.99,.18,1.14s-.15,.29-.37,.29c-.18,0-.37-.07-.74-.4-1.1-.99-1.55-2.39-2.39-3.53-.33-.44-.66-.52-1.4-.52-.77,0-1.32,.81-1.32,1.36,0,.11,.11,.37,.22,.55,1.21,2.02,2.94,3.94,5.37,4.93,.18,.07,.59,.15,.92,.15,.99,0,1.66-.66,2.32-1.33,.15-.15,.29-.37,.29-.66,0-1.51-.85-5.63-1.18-8.39-.07-.48-.26-2.13-.26-2.36,0-.44,.04-.7,.07-.96,.29-1.69,1.99-3.79,2.24-3.79,.29,0,.66,.26,.81,.51,.15,.26,.26,.7,.26,.99,0,.63-.29,1.14-.63,1.69-.07,.11-.11,.22-.11,.29,0,.55,.22,.92,.55,1.18,.26,.22,.88,.48,1.29,.48,.18,0,.22-.04,.51-.4,.51-.66,1.07-1.65,1.07-3.05,0-.74-.18-1.84-.7-2.39-.77-.81-1.58-1.32-3.61-1.32Z" fill="#89c925"/><path d="M230.7,105.33c-.85,0-1.69,.11-3.16,.11-1.07,0-1.55-1.1-1.88-2.02-.11-.29-.22-.37-.51-.63-.63-.55-1.36-.7-1.95-.7-1.53,0-2.98,1.54-4.13,3.1-.31-.12-.63-.2-.87-.2-.07,0-.22,.07-.4,.18-1.21,.74-3.31,1.51-4.93,1.84-.37,.07-.81,.15-.92,.15-.07,0-.15-.04-.15-.11,0-.11,.48-1.51,.85-2.28,1.18-2.5,2.94-5,3.42-7.87,.04-.22,.04-.33,.04-.4,0-.11-.15-.18-.33-.26-.44-.18-1.07-.29-1.4-.29-.37,0-.44,.18-1.03,.18-.15,0-.18,0-.4,.48-1.25,2.69-2.24,5.55-3.13,7.8-.29,.77-.48,1.32-.59,1.73-.07,.33-.29,.51-.63,.51-.66,0-1.58-.59-2.39-.59-.33,0-.51,.07-.74,.18-.29,.15-.44,.22-.44,.48,0,.11,0,.29,.18,.44,.85,.7,1.07,1.66,2.39,2.32,.15,.07,.18,.15,.18,.22s-.04,.15-.07,.26c-1.18,2.83-1.84,6.03-2.76,8.76-.11,.33-.15,.81-.15,1.1,0,.33,.11,.66,.4,.88,.29,.22,.88,.4,1.32,.4,.15,0,.4-.04,.55-.11,.51-.26,.88-1.21,.92-1.55,.22-1.84,1.47-4.97,1.69-6.18,.07-.4,.29-.77,.4-1.18,.15-.55,.33-1.25,.63-1.77,.15-.26,.37-.44,.7-.55,.75-.25,3.71-.92,5.53-1.59-1.23,2.05-2.18,4.21-2.18,6.6,0,.92,.15,2.02,.55,3.05,.33,.85,1.36,1.66,2.76,2.32,.22,.11,.55,.18,.88,.18,1.29,0,2.28-1.07,3.31-2.17,2.36-2.5,3.68-5.92,4.64-9.86,.07-.26,.15-.29,.44-.29,.26,0,.7,0,1.44-.11,.96-.15,2.02-.51,2.76-.63,.26-.04,.33-.07,.4-.22,.11-.18,1.03-.29,1.03-.77,0-.59-1.1-.96-2.28-.96Zm-10.78,11.48c-.29,.44-.37,.55-.63,.66-.15,.07-.33,.29-.7,.29-.11,0-.22,0-.33-.07-.33-.22-.77-.92-.88-1.21-.11-.26-.11-.4-.11-.51,0-4.3,3.46-8.87,4.6-10.3,.18-.26,.55-.44,.7-.63,.18-.22,.4-.37,.55-.37s.26,.26,.37,.63c.04,.15,.11,.37,.29,.55,.11,.11,.18,.15,.22,.4,.04,.18,.04,.63,.04,.77,0,3.72-1.99,6.59-4.12,9.79Z" fill="#89c925"/><path d="M257.55,98.6c.81,0,1.69-.99,2.35-1.8,.15-.18,.18-.44,.18-.66,0-.37-.07-.81-.44-1.21-.26-.29-.96-.48-1.54-.48-.77,0-1.43,.18-1.8,.63-.33,.4-.48,1.03-.48,1.54,0,.4,.07,.88,.26,1.25,.18,.33,.74,.74,1.47,.74Z" fill="#89c925"/><path d="M257.08,116.7c0-.15,0-.33-.22-.51-.22-.18-.63-.26-.92-.26-.59,0-.85,.18-1.73,.81-1.47,1.03-1.88,1.25-2.69,1.25-.63,0-.66-.85-.66-1.18,0-.55,.26-1.95,.88-3.61,.51-1.36,1.54-3.86,2.17-5.22,.85-1.8,2.36-2.72,2.36-4.67,0-.33-.11-.44-.29-.59-.26-.22-.74-.29-1.1-.29-.7,0-1.47,.22-1.84,.99-1.36,2.83-2.43,5.48-3.57,8.17-.22,.51-.37,1.14-.63,1.84-.13,.38-.23,.71-.32,1.03-.24-.1-.48-.14-.6-.14-1.69,0-3.49,3.13-5.11,4.12-.18,.11-.4,.15-.63,.15-.33,0-.63-.11-.74-.44-.15-.48-.18-.92-.18-1.36,0-1.62,.81-3.02,1.4-4.53,2.17-5.74,6.03-10.67,9.38-16.08,.22-.37,.37-.81,.37-1.29,0-.37-.07-.7-.29-1.03-.18-.26-.59-.4-.96-.4-.4,0-.7,.07-1.21,.07-1.43,0-1.65,2.06-2.28,3.13-2.8,4.78-6.07,10.67-7.65,14.79-.81,2.1-1.58,3.79-1.58,5.48,0,.44,.04,.85,.11,1.25,.37,2.02,3.42,2.83,3.68,2.83,2.74,0,4.24-2.61,6.03-4.61,0,0,0,0,0,.01,0,.51,.04,1.03,.18,1.55,.4,1.36,1.66,2.91,2.76,2.91,1.66,0,3.02-1.07,3.79-1.77l1.51-1.4c.37-.37,.59-.59,.59-.99Z" fill="#89c925"/><path d="M282.61,112.28c-.15,0-.33,0-.74,.26-2.21,1.4-3.75,3.39-6.29,4.75-1.66,.88-2.21,1.03-2.83,1.03-.37,0-.74-.07-1.14-.29-.33-.18-.88-.96-.88-1.54,0-.11,.04-.18,.22-.29,3.13-1.73,6-4.93,8.54-7.8,.51-.59,.81-.99,1.18-1.73,.44-.88,.85-1.69,.85-2.65,0-1.47-.77-2.13-1.18-2.28-.74-.26-1.25-.4-2.24-.4-1.8,0-3.31,.99-3.94,1.66-.69,.73-1.36,1.48-1.99,2.25-.18-.08-.38-.14-.65-.14-2.58,0-4.93,1.77-7.14,1.77-.11,0-.18-.04-.18-.18,0-.48,.66-1.77,.85-2.17,.22-.48,.29-.7,.4-1.1,1.04-2.58,2.76-5.04,3.66-6.69,.46-.85,.54-1.26,1.19-.24,.36,.56,1.19,1.87,2.12,.67,.29-.38,.17-1.48,.11-1.98-.06-.5-.84-1.53-1.46-2.03-.62-.5-1.46-.2-1.93-.12-.94,.16-1.58,.33-1.88,.81-2.24,3.64-3.72,7.17-5.89,12.36-.18,.44-.7,.51-.85,.51-.7,0-1.54-.51-2.1-.51-.22,0-.51,.37-.51,.74,0,.26,.11,.59,.22,.88,.29,.88,1.25,1.36,1.69,2.13,.07,.11,.07,.15,.07,.26,0,.88-2.58,7.84-2.91,9.75-.07,.48-.29,1.21-.37,1.47-.37,1.29-.99,2.54-.99,3.94,0,.55,.15,1.36,.26,1.43,.33,.22,.48,.44,.92,.44,.15,0,.74-.26,1.14-.41,.55-.18,.99-.63,1.03-1.07,.48-5.52,2.35-10.34,4.01-15.19,.07-.18,.15-.33,.33-.48,.66-.55,1.54-.66,2.39-.99,.66-.26,.48-.29,.88-.37,1.41-.25,2.77-.98,4.1-1.56-1.26,1.8-2.29,3.71-2.86,5.77-.15,.51-.18,.88-.18,1.21,0,.7,.18,2.1,.44,2.83,.4,1.21,1.1,2.13,1.84,2.54,.26,.15,1.55,.74,2.35,1.03,.59,.22,.96,.26,1.4,.26,.48,0,.66,0,1.33-.37,5.59-3.09,6.36-4.93,8.13-6.44,.18-.15,.18-.37,.18-.51,0-.11,.04-.15,.04-.48,0-.37-.51-.74-.74-.74Zm-5.92-7.91c.37-.33,.33-.22,.74-.48,.33-.22,.55-.33,.77-.33s.22,.15,.22,.44c0,.66-.29,1.14-.66,1.69-.48,.74-.33,.85-.88,1.51-1.66,1.99-3.46,4.01-5.63,5.67-.11,.07-.18,.11-.26,.11-.04,0-.07-.04-.07-.18,.81-3.27,3.38-6.29,5.78-8.42Z" fill="#89c925"/><path d="M138.48,96.19c1.32,.15,2.17-1.58,1.21-2.84-1.07-1.41-2.62-1.2-3.65-.17,0,0-1.27,1.45-.83,2.48,.44,1.03,1.94,.39,3.26,.54Z" fill="#89c925"/><path d="M56.24,121.03c.73,0,1-.67,1-.95,0-.4-.27-.67-.58-.91-.27-.2-1.23-.71-1.34-1.42-.08-.4-.31-.99-.31-1.7,0-.79,.23-2.77,.46-3.56,.58-2.02,1.3-3.52,2.68-5.86,.19-.32,.38-.87,.38-1.03,0-.48-.35-1.03-.77-1.07-.61-.04-.81-.31-1.38-.4-1.45-.23-2.13,.13-4.1,1.61-1.97,1.48-3.94,3.69-5.37,5.72-1.43,2.03-2.55,4.71-2.55,4.71-.11,0-.11-.24-.11-.4,0-.12,.18-.92,.45-1.63,1.27-3.25,2.19-5.15,2.72-6.17,.96-1.82,2.03-3.09,2.45-3.56,.65-.71,.84-1.43,.84-1.86,0-.2-.11-.51-.19-.71-.15-.36-.65-.59-1.53-.59-.58,0-1.04,.12-1.34,.4-.35,.32-.31,.4-.61,.87-1.69,2.65-2.57,4.55-3.72,7.28-.65,1.54-1.73,4.24-1.88,5.38-.04,.32-.11,.55-.19,.79-.12-.02-.24-.03-.34-.03-.59,0-.85,.18-1.73,.81-1.47,1.03-1.88,1.25-2.69,1.25-.63,0-.66-.85-.66-1.18,0-.55,.26-1.95,.88-3.61,.51-1.36,1.54-3.86,2.17-5.22,.85-1.8,2.36-2.72,2.36-4.67,0-.33-.11-.44-.29-.59-.26-.22-.74-.29-1.1-.29-.7,0-1.47,.22-1.84,.99-1.57,3.27-2.57,5.83-3.57,8.17-.22,.51-.37,1.14-.63,1.84-.44,1.25-.59,2.06-.59,2.98,0,.51,.04,1.03,.18,1.54,.4,1.36,1.66,2.91,2.76,2.91,1.66,0,3.02-1.07,3.79-1.77l1.08-1c.05,.26,.12,.49,.21,.61,.5,.63,2.3,1.82,2.76,1.82,.35,0,1.11-.08,1.42-.44,.54-.59,1.06-1.73,1.76-2.99,.58-1.06,1.03-2.17,2.68-4.57,1.65-2.4,3.85-3.65,3.85-3.65,0,0-.91,1.79-1.29,4.63-.01,.12-.34,.79-.34,3.13,0,.99,.19,1.82,.65,2.45,.5,.71,.96,.87,1.5,1.39,.46,.44,1.69,.55,1.99,.55Z" fill="#89c925"/><path d="M85.31,97.84c.77,.25,1.92-.41,2.8-.98,.2-.13,.31-.36,.38-.57,.11-.35,.18-.79-.04-1.29-.15-.36-.76-.75-1.32-.94-.73-.24-1.42-.28-1.91,.03-.44,.28-.78,.83-.94,1.32-.13,.38-.21,.86-.15,1.27,.07,.37,.47,.93,1.17,1.16Z" fill="#89c925"/><path d="M42.3,98.3c1.3-.2,1.44-1.76,1.44-2.61s-.88-2-2.35-1.5c-3.07,1.04-.39,4.3,.91,4.11Z" fill="#89c925"/><path d="M114.88,110.28c-.18-.02-.26-.03-.92,.27-2.26,1.02-3.34,1.81-4.48,2.66-.11,0-.08-.29-.03-.39,.13-.29,.36-.78,2.95-5.58,.26-.48,.52-.85,.79-1.41,.19-.39,.58-.92,.22-1.38-.29-.37-1.34-.39-1.7-.34-.43,.06-.77-.12-.99-.44-.54-.78-1.68-1.01-2.56-.83-.14,.03-2.83,.43-6.69,4.77-1.29,1.44-3.16,3.83-3.61,4.78-.37,.81-1.07,1.84-1.07,3.42,0,.77,.07,.88,.26,1.07,.66,.66,1.43,1.36,2.21,1.69,.33,.15,.74,.22,1.1,.22,1.84,0,2.9-1.17,4.56-2.75,.04-.04,.07-.04,.11-.04s.07,.04,.07,.07c0,0,.04,.16-.29,.62-1.27,1.73-4.08,3.23-7.47,8.22-3.39,4.99-3.11,6.48-3.23,7.99-.02,.26,.04,.55,.11,.81,.18,.7,2.83,1.53,3.53,1.53,1.4,0,1.98-.37,2.75-1.81,.44-.81,3.65-7.22,4.79-10.28,1.61-4.29,2.09-6.23,10.28-11.24,.32-.19,.35-.52,.36-.59,.02-.18-.03-.41-.16-.57-.2-.24-.58-.43-.91-.47Zm-11.46,11.67c-.37,.86-4.15,8.92-4.64,9.97-.49,1.04-.88,.85-1.37,.82-.49-.03-.58-.65-.31-1.65,.36-1.37,.82-2.77,2.18-4.86,1.88-2.86,4.57-5.25,4.14-4.27Zm-2.46-6.28c-.29,.18-.55,.18-.74,.18-.15,0-.44-.15-.44-.29,0-.22,.22-.88,.44-1.4,.77-1.8,3.64-5.26,5.63-7.1,.51-.48,.81-.51,1.54-1.1,.51-.4,1.03-.77,1.69-.77,.22,0,.44,.04,.63,.11,.37,.15,.37,.26,.37,.37,0,.07,.07,.15,.07,.22s-.04,.15-.11,.26c-2.24,3.39-5.78,7.43-9.09,9.53Z" fill="#89c925"/><path d="M20.32,107.17c-.55-1.07-.99-1.72-2.24-2.2-2.37-.83-2.72-.27-3.42-.23-.07-.04-.15-.07-.15-.15s1.99-1.99,2.98-3.13c3.02-3.5,3.71-4.66,3.63-5.94-.03-.48-.33-1.32-.81-1.73-.88-.77-2.24-1.21-3.57-1.21-1.14,0-2.21,.37-2.54,.55-.33,.18-.63,.29-.88,.29-.92,0-1.73-.96-2.58-.96-.44,0-.85,.26-1.36,1.73-.55,1.58-.96,2.43-2.02,2.87-.18,.07-.22,.11-.22,.48,0,.48,.04,.77,.33,1.21,.07,.11,.11,.18,.11,.26-1.54,4.01-3.25,9.7-4.32,14.34-.11,.48-.26,.48-.4,.48s-.48-.15-.7-.15c-1.62,0-2.06,.15-2.06,.63,0,.77,.55,.92,.63,1.66,.04,.37,1.54,1.58,1.54,2.13,0,.15,0,.26,.22,.44,.63,.55,1.36,1.32,2.17,1.32,.18,0,.4,0,.55-.07,.66,.66,1.44,.85,1.84,1.07,.81,.44,2.68,.66,3.86,.66,2.43,0,5.03-.91,6.79-3.37,1.87-2.63,3.35-4.85,3.35-8.09,0-1.22-.37-2.15-.74-2.91Zm-9.43-8.24c.18-.55,.48-1.07,.7-1.62,.11-.26,.18-.33,.44-.51,1.55-1.1,3.16-1.91,5.26-1.91,.15,0,.33,.14,.35,.42,.04,.5-.3,1.55-1.7,3.5-1.18,1.62-2.79,3.63-3.89,4.91-.22,.26-1,1.24-1.52,1.78-.48,.55-1.2,1.26-2.01,1.49-.11,.03-.15,0-.15-.15,0-.99,2-6.37,2.52-7.91Zm5.55,15.18c-1.33,2.54-2.39,5.35-5.46,5.71-2.08,.24-3.72-1.18-4.86-2.32-.22-.22-.26-.4-.26-.55,0-.99,1.37-5.82,1.62-6.93,.07-.29,.11-.37,.4-.37,.92,0,2.01-.74,3.02-1.21,.98-.46,1.94-.97,3.53-1.55,.72-.26,1.91-.48,2.59,.2,.33,.33,.76,.89,.72,2.02-.03,.77-.13,2.57-1.3,5Z" fill="#89c925"/></g></svg>