<?xml version="1.0" encoding="utf-8"?>
<!-- Generator: Adobe Illustrator 26.4.1, SVG Export Plug-In . SVG Version: 6.00 Build 0)  -->
<svg version="1.1" id="Layer_1" xmlns="http://www.w3.org/2000/svg" xmlns:xlink="http://www.w3.org/1999/xlink" x="0px" y="0px"
	 viewBox="0 0 136.06 136.06" style="enable-background:new 0 0 136.06 136.06;" xml:space="preserve">
<style type="text/css">
	.st0{fill:none;}
</style>
<path d="M104.78,36.42v2.34c2.59,0,4.41,0.26,5.43,0.78c1.03,0.52,1.79,1.28,2.28,2.28c0.49,1,0.74,3.11,0.74,6.34v8.68l-0.01,1.01
	c0.03,3.2,0.16,4.49-2.73,5.83c-1.2,0.52-2.41,0.95-3.66,1.29c-2.22,0.6-4.51,0.9-6.88,0.9c-4.05,0-8-1.18-11.84-3.54
	c-3.84-2.36-6.95-6.07-9.33-11.13c-2.37-5.06-3.56-10.66-3.56-16.8c0-7.56,1.79-14.08,5.36-19.56c4.27-6.49,10.51-9.73,18.7-9.73
	c6.01,0,10.93,1.85,14.76,5.55c2.66,2.56,4.52,6.38,6.19,11.44l1.97,0l-1.66-20.31h-1.76c-0.09,1.61-0.36,2.7-0.78,3.25
	c-0.43,0.55-0.94,0.83-1.54,0.83c-0.6,0-1.79-0.33-3.56-1c-3.51-1.3-6.23-2.14-8.14-2.52c-1.91-0.38-4.04-0.57-6.38-0.57
	c-6.42,0-11.99,1.38-16.71,4.13c-5.63,3.32-10.06,8.07-13.29,14.24c-2.72,5.19-4.08,10.62-4.08,16.28c0,0.65,0.02,1.29,0.05,1.93
	c-0.39-0.28-0.79-0.55-1.21-0.81c-2.95-1.92-6.56-3.13-10.29-3.64c-0.69-0.1-1.39-0.18-2.1-0.24l1.64-0.5
	c6.98-2.06,12.57-7.11,12.57-14.54c0-0.11,0-0.22,0-0.34C64.66,8.57,54.8,3.16,45.44,3.17H5.25v2.91h5.22
	c2.64-0.01,5,0.13,6.22,1.26c1.34,1.23,1.45,2.65,1.46,4.6c0,0.29-0.08,48.69-0.08,49.67c0,1.83-1.35,2.53-2.84,3
	c-1.9,0.59-3.95,0.57-5.92,0.57c0,0-4.06,0-4.06,0v3.07c0,0,12.88,0.01,24.35,0.01c-9.67,2.39-13.69,9.46-13.62,15.03
	c0.09,3.88,0.78,7.41,4.4,12.24c-5.17,2.5-14.05,10.34-14.05,20.43c0,7.5,5.52,19.05,23.96,19.05c11.81,0,17.58-5.26,20.43-7.84
	c5.99,4.59,9.15,6.14,15.32,6.56c0.7,0.05,1.44,0.1,2.23,0.12c1.7,0.05,56.76,0.02,56.76,0.02l-0.06-21.31l-2.83,0
	c0.12,0,0.04,2.39,0.03,2.61c-0.07,0.97-0.21,1.94-0.44,2.89c-0.69,2.93-2.18,5.78-4.06,8.12c-2.4,3-6.15,4.08-9.84,4.33
	c-3.59,0.24-12.09,0.07-12.74,0.07c-3.43,0-5.48-0.28-6.73-1.28c-1.45-1.1-1.75-2.55-1.76-4.58c0,0,0-11.65,0-23.23
	c0.24,0,4.28,0.02,4.68,0.04c2.82,0.13,5.85,0.59,8.11,2.43c1.43,1.17,3.11,2.44,3.11,7.73c0,0.34,0,0.72,0,1.13h2.79V87.34h-2.79
	c0,0.41,0,0.8,0,1.13c0,5.29-1.68,6.56-3.11,7.73c-2.26,1.84-5.29,2.29-8.11,2.43c-0.4,0.02-4.44,0.04-4.68,0.04V78.75
	c0-2.04,0.07-4.34,1.96-5.58c1.32-0.87,2.97-0.88,4.5-0.98c3.24-0.22,6.48-0.15,9.73-0.13c3.01,0.01,5.89,0.3,8.71,1.41
	c4.44,1.73,7.27,5.81,8.44,10.31c0.5,1.93,0.7,3.92,0.84,5.9c0,0.01,2.55,0,2.55,0l-0.7-20.86l-17.11,0
	c2.18-0.23,4.25-0.59,6.19-1.09c3.54-0.92,7.14-2.36,10.77-4.32V48.15c0-3.45,0.32-5.76,0.95-6.93c0.92-1.64,2.61-2.47,5.08-2.47
	h1.19v-2.34H104.78z M27.09,59.32c0-0.16,0-0.32,0-0.49c0,0,0-0.06,0-0.18c0-0.11,0-0.22,0-0.33l0,0c-0.01-5.06-0.1-47.08-0.1-47.52
	C27,9.59,27.1,8.69,27.86,7.77c1.24-1.4,3.36-1.53,5.93-1.53c0.13,0,8.34,0,8.34,0c7.55,0.09,13.41,2.94,13.64,13.15v0.36
	c-0.04,8.65-5.58,12.88-12.69,12.93h-4.84v3.03h4.84c9.08,0.23,16.84,2.3,16.91,15.01c-0.07,10.51-5.6,14.56-13.39,14.63H36.18
	c-1.62,0.02-3.29-0.05-4.7-0.29C27.52,64.28,27.13,61.51,27.09,59.32z M33.22,129.59c-8.96,0-16.55-6.9-16.55-17.67
	c0-6.9,3.02-10.95,5.95-13.1c1.47,2.15,6.98,8.36,9.22,10.77c2.24,2.41,10.52,10.52,15.52,14.83
	C45.54,126.14,39.85,129.59,33.22,129.59z M65.09,68.81c0,0,0,2.95,0,2.95c0.8,0.06,2.62,0.22,4.59,0.39
	c1.83,0.16,3.7,0.41,5.49,0.82c0.92,0.21,1.9,0.64,2.31,1.5c0.45,0.94,0.37,2.02,0.37,3.06c0,0.57-0.02,21.19-0.06,35.27v7.36h0
	c0,2.92,0.01,4.79,0.01,4.96c0,1.03,0.09,2.12-0.37,3.06c-0.37,0.76-1.18,1.18-2.01,1.42l0.03-0.02c-3.12,0.94-6.13-0.45-9.52-2.69
	c-0.05-0.03-2.18-1.33-8.06-6.09c4.91-5.78,8.45-13.79,8.45-20.43c0-1.03-1.29-1.55-2.93-1.72c-4.83-0.52-8.27-0.6-10.34-0.6
	c-0.04,0-1.41,0-1.41,0l0,1.94l1.19,0c1.41,0.02,3.07-0.06,4.09,0.9c1.29,1.03,1.64,2.67,1.64,3.96c0,5.26-2.41,10.86-4.14,13.27
	c-1.64-1.47-12.24-11.03-15.17-14.4c-6.9-7.67-14.31-14.57-14.31-22.67c0-7.33,5.6-9.83,9.22-9.83c4.83,0,7.84,1.81,9.57,3.88
	c1.9,2.24,2.28,4.02,2.1,7.19l-0.1,1.79l1.98,0c0,0,1.11-9.92,1.11-12.6c0-1.03,0-1.72-1.47-2.24c-0.87-0.35-1.95-0.69-3.18-0.98
	c1.25,0.04,2.45,0.02,3.6-0.03c6.17-0.22,12.51-2.09,16.87-5.86c2.57-2.16,4.33-4.73,5.3-7.4c0.5,0.73,1.04,1.45,1.61,2.15
	c5.47,6.76,13.08,10.65,22.84,11.68L65.09,68.81z"/>
<rect x="-0.45" y="0.37" class="st0" width="136.43" height="136.06"/>
</svg>