<?xml version="1.0" encoding="UTF-8"?><svg id="a" xmlns="http://www.w3.org/2000/svg" viewBox="0 0 600.9 178.07"><path d="m143.52,93.61V0H0v93.61s11.03,0,11.03,0V10.93h121.46v82.69h11.03Zm-33.09,10.99v2.37c0,21.13-17.35,38.32-38.67,38.32s-38.67-17.19-38.67-38.32v-2.37h-11.03v2.37c0,27.15,22.3,49.25,49.7,49.25s49.7-22.09,49.7-49.25v-2.37h-11.03Zm-11.03-10.99v-49.9h-55.29v49.9h11.03v-38.97h33.23v38.97h11.03Zm-33.23,10.99v2.37c0,3.05,2.51,5.53,5.58,5.53s5.58-2.48,5.58-5.53v-2.37h-11.17Zm22.2,0v2.37c0,9.08-7.45,16.46-16.61,16.46s-16.61-7.38-16.61-16.46v-2.37h-11.03v2.37c0,15.1,12.4,27.39,27.64,27.39s27.64-12.29,27.64-27.39v-2.37h-11.03Zm33.09-10.99V21.86H22.06v71.76h11.03v-60.83h77.35v60.83h11.03Zm11.03,10.99v2.37c0,33.18-27.24,60.17-60.73,60.17s-60.73-26.99-60.73-60.17v-2.37H0v2.37c0,39.21,32.19,71.1,71.76,71.1s71.76-31.9,71.76-71.1v-2.37h-11.03Z" fill="#004346" stroke-width="0"/><polygon points="77.36 93.63 77.36 79.54 77.36 65.71 71.74 65.71 66.13 65.71 66.13 79.54 66.13 93.63 71.74 93.63 77.36 93.63" fill="#004346" stroke-width="0"/><polygon points="242.15 104.6 232.04 143.42 220.39 104.87 220.31 104.6 210.01 104.6 211.97 111.41 202.58 143.47 192.27 104.6 181.08 104.6 196.18 160.02 206.93 160.02 216.1 125.77 225.94 160.02 236.77 160.02 251.62 104.6 242.15 104.6" fill="#004346" stroke-width="0"/><path d="m263.47,129.51c1.46-2.37,3.65-3.53,6.69-3.53s5.04,1.11,6.45,3.41c1.43,2.32,2.15,5.55,2.15,9.6,0,8.99-2.89,13.36-8.84,13.36-2.7,0-4.76-1.09-6.32-3.32-1.56-2.25-2.36-5.57-2.36-9.88,0-3.99.75-7.24,2.23-9.63m6.73-11.77c-5.8,0-10.54,2.05-14.08,6.1-3.53,4.03-5.32,9.14-5.32,15.19,0,5.61,1.61,10.66,4.8,15,3.21,4.38,7.92,6.6,14,6.6,5.63,0,10.36-2,14.03-5.95,3.67-3.94,5.53-9.21,5.53-15.66s-1.79-11.42-5.32-15.35c-3.54-3.94-8.13-5.93-13.64-5.93" fill="#004346" stroke-width="0"/><path d="m306.99,129.51c1.46-2.37,3.65-3.53,6.69-3.53s5.04,1.11,6.45,3.41c1.42,2.32,2.15,5.55,2.15,9.6,0,8.99-2.89,13.36-8.84,13.36-2.7,0-4.76-1.09-6.32-3.32-1.56-2.25-2.36-5.57-2.36-9.88,0-3.99.75-7.24,2.23-9.63m6.73-11.77c-5.8,0-10.54,2.05-14.08,6.1-3.53,4.03-5.32,9.14-5.32,15.19,0,5.61,1.61,10.66,4.8,15,3.21,4.38,7.92,6.6,14,6.6,5.63,0,10.36-2,14.03-5.95,3.67-3.94,5.53-9.21,5.53-15.66s-1.79-11.42-5.32-15.35c-3.54-3.94-8.13-5.93-13.64-5.93" fill="#004346" stroke-width="0"/><path d="m362.49,128.11c1.5,1.75,2.25,4.25,2.25,7.43v6.85c0,2.91-.84,5.32-2.49,7.18-1.64,1.84-3.55,2.78-5.67,2.78-5.46,0-8.12-4.3-8.12-13.16,0-4.58.75-8.05,2.22-10.33,1.46-2.26,3.43-3.35,6.01-3.35,2.36,0,4.3.88,5.78,2.61m2.25-5.29c-2.18-3.91-5.7-5.88-10.48-5.88-5.19,0-9.24,2.2-12.05,6.54-2.78,4.29-4.19,9.38-4.19,15.14,0,6.19,1.35,11.44,4.02,15.62,2.7,4.23,6.65,6.38,11.73,6.38s9.09-2.55,11.56-7.6v6.75h9.28v-55.42h-9.88v18.46Z" fill="#004346" stroke-width="0"/><path d="m238.31,67.83c.33-2.85,1.28-5.1,2.82-6.67,1.6-1.64,3.63-2.47,6.02-2.47s4.47.89,6.11,2.64c1.57,1.68,2.42,3.87,2.51,6.5h-17.46Zm8.75,26.58c4.73,0,8.73-1.23,11.88-3.64,3.47-2.66,5.76-6.36,6.43-10.41l.07-.44h-9.06l-.08.26c-1.33,4.13-4.34,6.31-8.72,6.31-2.23,0-4.1-.59-5.57-1.76-1.48-1.18-2.48-2.57-2.98-4.14-.48-1.54-.74-3.6-.76-6.12h27.74l.05-1.42c0-6.25-1.62-11.45-4.81-15.45-3.21-4.03-7.81-6.07-13.67-6.07s-10.8,2.07-14.3,6.14c-3.49,4.06-5.26,9.24-5.26,15.42,0,6.5,1.76,11.73,5.22,15.55,3.48,3.83,8.12,5.77,13.81,5.77" fill="#004346" stroke-width="0"/><path d="m590.61,67.83h-17.46c.33-2.85,1.28-5.1,2.82-6.67,1.6-1.64,3.63-2.47,6.02-2.47s4.47.89,6.11,2.64c1.57,1.68,2.42,3.87,2.51,6.5m10.29,5.22c0-6.25-1.62-11.45-4.81-15.45-3.21-4.03-7.81-6.07-13.67-6.07s-10.8,2.06-14.3,6.14c-3.49,4.06-5.26,9.24-5.26,15.42,0,6.5,1.76,11.73,5.22,15.55,3.48,3.83,8.12,5.77,13.81,5.77,4.73,0,8.73-1.23,11.88-3.64,3.47-2.66,5.76-6.36,6.43-10.41l.07-.44h-9.06l-.08.26c-1.33,4.13-4.34,6.31-8.72,6.31-2.23,0-4.1-.59-5.57-1.76-1.48-1.18-2.48-2.57-2.98-4.14-.48-1.54-.74-3.6-.76-6.12h27.74l.05-1.42Z" fill="#004346" stroke-width="0"/><path d="m338.53,73.29c0,3.84-.67,7.05-1.98,9.54-1.29,2.44-3.27,3.63-6.06,3.63-2.02,0-3.88-.93-5.55-2.78-1.68-1.86-2.53-4.23-2.53-7.06v-5.77c0-3.31.83-6.02,2.46-8.05,1.61-2.01,3.6-3.02,5.89-3.02,2.57,0,4.45,1.2,5.76,3.66,1.33,2.51,2,5.83,2,9.86m6.56,14.57c2.57-4.29,3.88-9.39,3.88-15.17,0-6.11-1.37-11.21-4.07-15.15-2.73-3.99-6.45-6.01-11.04-6.01-5.13,0-9.16,2.31-12,6.86v-6.02h-9.48v54.86h10.04v-18.33c2.44,3.66,6.12,5.51,10.96,5.51,5.16,0,9.1-2.2,11.72-6.55" fill="#004346" stroke-width="0"/><path d="m366.62,63.29c1.46-2.37,3.65-3.53,6.69-3.53s5.04,1.11,6.45,3.41c1.42,2.32,2.15,5.55,2.15,9.6,0,8.99-2.89,13.36-8.84,13.36-2.7,0-4.77-1.09-6.32-3.32-1.56-2.25-2.36-5.57-2.36-9.88,0-3.99.75-7.24,2.23-9.63m6.73-11.77c-5.8,0-10.54,2.05-14.08,6.1-3.53,4.03-5.32,9.14-5.32,15.19,0,5.61,1.61,10.66,4.8,15,3.21,4.38,7.92,6.6,14,6.6,5.63,0,10.36-2,14.03-5.95,3.67-3.94,5.53-9.21,5.53-15.66s-1.79-11.42-5.32-15.35c-3.54-3.94-8.13-5.93-13.64-5.93" fill="#004346" stroke-width="0"/><path d="m420.89,51.53c-4.98,0-8.97,2.98-11.88,8.87v-8.03h-9.08v41.2h9.88v-21.16c0-4.08.87-7.16,2.59-9.17,1.71-1.99,3.71-2.99,5.96-2.99,1.64,0,3,.62,4.17,1.9,1.16,1.27,1.75,3.21,1.75,5.77v25.65h9.88v-26.49c0-5.72-1.32-9.79-3.91-12.1-2.58-2.3-5.73-3.46-9.36-3.46" fill="#004346" stroke-width="0"/><polygon points="481.92 38.15 481.92 43.27 481.92 48.39 486.86 48.39 491.8 48.39 491.8 43.27 491.8 38.15 481.92 38.15" fill="#004346" stroke-width="0"/><polygon points="481.92 93.57 486.86 93.57 491.8 93.57 491.8 72.97 491.8 52.37 486.86 52.37 481.92 52.37 481.92 72.97 481.92 93.57" fill="#004346" stroke-width="0"/><path d="m528.22,71.92c-.11,5.65-.95,9.48-2.52,11.38-1.57,1.9-3.45,2.83-5.76,2.83s-4.31-.83-5.79-2.46c-1.49-1.64-2.25-4.25-2.25-7.74v-6.01c0-3.44.79-6.14,2.36-8.01,1.55-1.85,3.54-2.79,5.92-2.79,2.56,0,4.48,1.06,5.89,3.25,1.42,2.21,2.14,5.42,2.14,9.54m-5.39-21.43c-2.38,0-4.49.5-6.27,1.49-1.55.86-3.11,2.52-4.65,4.95v-18.77h-9.88v55.42h4.76l2.27-6.17c3.02,4.66,7.22,7.02,12.49,7.02s9.74-2.21,12.67-6.58c2.9-4.32,4.37-9.59,4.37-15.67,0-6.73-1.5-12.07-4.44-15.89-2.97-3.84-6.78-5.79-11.31-5.79" fill="#004346" stroke-width="0"/><polygon points="545.76 38.15 545.76 65.86 545.76 93.57 550.7 93.57 555.64 93.57 555.64 65.86 555.64 38.15 545.76 38.15" fill="#004346" stroke-width="0"/><path d="m287.8,86.81c-4.33,0-7.05-1.53-8.3-4.69l-.09-.24h-9.33l.02.4c.22,3.97,2.66,7.56,6.52,9.58,3.22,1.69,6.97,2.55,11.15,2.55,4.83,0,9.06-1.13,12.58-3.36,3.57-2.27,5.38-5.73,5.38-10.31,0-6.53-3.51-10.56-10.43-11.98l-8.69-1.8c-3.71-.76-5.59-2.1-5.59-4,0-2.82,2.26-4.19,6.91-4.19,3.85,0,6.12,1.4,6.93,4.29l.08.27h8.96l-.06-.43c-1.02-7.34-6.76-11.38-16.14-11.38-5.2,0-9.18,1.29-11.84,3.85-2.65,2.56-4,5.71-4,9.38,0,6.58,4.23,10.74,12.56,12.34l7.37,1.4c1.14.23,2.13.67,2.97,1.33.79.63,1.18,1.39,1.18,2.35,0,3.12-2.65,4.63-8.12,4.63" fill="#004346" stroke-width="0"/><path d="m464.87,68.76l-8.69-1.8c-3.71-.76-5.59-2.1-5.59-4,0-2.82,2.26-4.19,6.91-4.19,3.85,0,6.12,1.4,6.93,4.29l.08.27h8.96l-.06-.43c-1.02-7.34-6.75-11.38-16.14-11.38-5.2,0-9.18,1.29-11.84,3.85-2.65,2.56-4,5.72-4,9.38,0,6.58,4.23,10.74,12.56,12.34l7.37,1.4c1.14.23,2.13.67,2.97,1.33.79.63,1.18,1.39,1.18,2.35,0,3.12-2.65,4.63-8.12,4.63-4.33,0-7.05-1.53-8.3-4.69l-.09-.24h-9.33l.02.4c.22,3.97,2.66,7.56,6.52,9.58,3.22,1.69,6.97,2.55,11.15,2.55,4.83,0,9.06-1.13,12.58-3.36,3.57-2.27,5.38-5.73,5.38-10.31,0-6.53-3.51-10.56-10.43-11.98" fill="#004346" stroke-width="0"/><path d="m191.6,47.34h12.28c8.52,0,10.66,3.27,10.66,8.33s-2.94,8.33-9.11,8.33h-13.84v-16.66Zm0,25.84h12.7l9.27,20.39h11.61l-11.12-22.34c2.65-1.01,10.86-3.89,10.86-16.35,0-9.73-7.04-16.73-18.8-16.73h-24.56v55.42h10.03v-20.39Z" fill="#004346" stroke-width="0"/><path d="m401.83,159.9v-17.81h5.85c4.33,0,6.45,2.12,6.45,5.14,0,2.02-.97,3.8-3.23,5.17l5.34,7.49h-3.16l-4.37-6.42h-4.3v6.42h-2.59Zm2.59-15.46v6.82h4.87c1.45-1.04,2.15-2.32,2.15-3.76,0-2.12-1.38-3.06-4.4-3.06h-2.62Z" fill="#004346" stroke-width="0"/><path d="m428.47,146.06l-3.66,13.84h-3.29l-4.47-17.81h2.55l3.76,15.09,3.59-13.51h3.19l3.59,13.47,3.76-15.05h2.45l-4.43,17.81h-3.33l-3.73-13.84Z" fill="#004346" stroke-width="0"/><path d="m443.22,162.26h-2.12v-.54l6.21-19.62h2.12v.54l-6.21,19.62Z" fill="#004346" stroke-width="0"/><path d="m457.26,159.9v-15.05l-3.49.6v-2.25l4.33-1.11h1.75v17.81h-2.59Z" fill="#004346" stroke-width="0"/><path d="m464.11,150.03h8.74v2.15h-8.74v-2.15Z" fill="#004346" stroke-width="0"/><path d="m478.49,159.9v-15.05l-3.49.6v-2.25l4.33-1.11h1.75v17.81h-2.59Z" fill="#004346" stroke-width="0"/><path d="m484.8,151.1c0-5.88,2.99-9.34,8.06-9.34s7.96,3.43,7.96,9.11c0,5.98-3.12,9.37-8.1,9.37s-7.93-3.16-7.93-9.14Zm13.27-.1c0-4.57-1.95-6.85-5.28-6.85s-5.24,2.42-5.24,6.85,1.98,6.85,5.24,6.85,5.28-2.32,5.28-6.85Z" fill="#004346" stroke-width="0"/><path d="m504.53,150.03h8.74v2.15h-8.74v-2.15Z" fill="#004346" stroke-width="0"/><path d="m518.9,159.9v-15.05l-3.49.6v-2.25l4.33-1.11h1.75v17.81h-2.59Z" fill="#004346" stroke-width="0"/></svg>