<?xml version="1.0" encoding="UTF-8"?><svg id="a" xmlns="http://www.w3.org/2000/svg" viewBox="0 0 841.89 334.28"><polygon points="229.92 21.16 204.51 52.63 229.86 71.12 229.92 71.08 229.92 21.16" fill="#f09b36" stroke-width="0"/><path d="m307.99,116.2l-77.29,56.36v-32.5l51.34-37.43.16-18.64-52.32,38.15v18.52l-50.83-37.06-26.37,13.27,77.2,56.3v18.52s78.18-56.52,78.3-57.1c.12-.58-.18-18.39-.18-18.39Z" fill="#57744b" stroke-width="0"/><polygon points="230.31 89.5 256.45 70.25 255.52 52.63 230.12 71.08 230.12 89.45 229.86 89.64 205.26 71.7 201.61 73.45 178.59 84.75 229.86 122.14 230.31 121.82 230.31 89.5" fill="#57744b" stroke-width="0"/><path d="m349.01,195.6h70.18v28.53h-37.9v8.79h35.59v26.66h-35.59v9.51h40.35v28.53h-72.63v-102.03Z" fill="#57744b" stroke-width="0"/><path d="m337.65,221.68c-3.36-6.44-7.85-11.6-13.47-15.49-5.62-3.89-12.1-6.63-19.45-8.21-7.35-1.58-15.06-2.38-23.13-2.38h-9.98l-28.07,20.72v81.31h40.93c7.59,0,14.89-1.01,21.9-3.03,7.01-2.02,13.21-5.12,18.59-9.3,5.38-4.18,9.68-9.53,12.9-16.07,3.22-6.53,4.83-14.27,4.83-23.2,0-9.8-1.68-17.92-5.04-24.35Zm-36.17,41.16c-4.32,3.49-10.52,5.24-18.59,5.24h-6.34v-43.38h7.64c7.21,0,12.97,1.84,17.29,5.53,4.32,3.69,6.49,8.83,6.49,15.44,0,7.95-2.16,13.67-6.49,17.17Z" fill="#57744b" stroke-width="0"/><polygon points="151.98 185.66 140.91 252.96 140.33 252.96 127.51 195.6 91.63 195.6 79.81 252.96 79.23 252.96 68.28 195.6 31.96 195.6 59.78 297.63 94.36 297.63 109.21 239.99 109.78 239.99 124.19 297.63 158.78 297.63 181.12 208.27 151.98 185.66" fill="#57744b" stroke-width="0"/><path d="m229.65,223.93l-.12-32.49-76.16-55.53c-5.63,2.7-15.58,7.47-26.19,12.53l-.88,1.1,54.99,40.1,48.36,34.29Z" fill="#57744b" stroke-width="0"/><polygon points="195.33 218.46 195.33 297.63 229.92 297.63 229.69 242.6 195.33 218.46" fill="#57744b" stroke-width="0"/><path d="m475.84,226.15h-7.33l-6.08-20.79h-.13l-6.08,20.79h-7.38l-8.72-30.73h7.99l4.86,20.44h.13l5.47-20.44h7.73l5.51,20.44h.13l4.95-20.44h7.72l-8.77,30.73Z" fill="#57744b" stroke-width="0"/><path d="m518.93,210.66c0,2.43-.42,4.65-1.26,6.66-.84,2.01-2,3.73-3.49,5.17-1.49,1.43-3.26,2.54-5.32,3.32-2.05.78-4.28,1.17-6.68,1.17s-4.62-.39-6.66-1.17c-2.04-.78-3.8-1.89-5.29-3.32-1.49-1.43-2.66-3.15-3.49-5.17-.84-2.01-1.26-4.23-1.26-6.66s.42-4.68,1.26-6.66c.84-1.98,2-3.67,3.49-5.06,1.49-1.39,3.25-2.46,5.29-3.21,2.04-.75,4.26-1.13,6.66-1.13s4.63.38,6.68,1.13c2.05.75,3.83,1.82,5.32,3.21,1.49,1.39,2.65,3.08,3.49,5.06.84,1.98,1.26,4.2,1.26,6.66Zm-7.94,0c0-1.33-.22-2.58-.65-3.73-.43-1.16-1.03-2.15-1.8-2.97-.77-.82-1.69-1.48-2.78-1.95-1.08-.48-2.28-.72-3.58-.72s-2.49.24-3.56.72c-1.07.48-2,1.13-2.78,1.95-.78.83-1.38,1.82-1.8,2.97-.42,1.16-.63,2.4-.63,3.73s.22,2.67.65,3.84c.43,1.17,1.03,2.18,1.8,3.02.77.84,1.69,1.5,2.76,1.97s2.26.72,3.56.72,2.49-.24,3.56-.72c1.07-.48,2-1.13,2.78-1.97.78-.84,1.39-1.84,1.82-3.02.43-1.17.65-2.45.65-3.84Z" fill="#57744b" stroke-width="0"/><path d="m555.52,210.66c0,2.43-.42,4.65-1.26,6.66-.84,2.01-2,3.73-3.49,5.17-1.49,1.43-3.26,2.54-5.32,3.32-2.05.78-4.28,1.17-6.68,1.17s-4.62-.39-6.66-1.17c-2.04-.78-3.8-1.89-5.29-3.32-1.49-1.43-2.66-3.15-3.49-5.17-.84-2.01-1.26-4.23-1.26-6.66s.42-4.68,1.26-6.66c.84-1.98,2-3.67,3.49-5.06,1.49-1.39,3.25-2.46,5.29-3.21,2.04-.75,4.26-1.13,6.66-1.13s4.63.38,6.68,1.13c2.05.75,3.83,1.82,5.32,3.21,1.49,1.39,2.65,3.08,3.49,5.06.84,1.98,1.26,4.2,1.26,6.66Zm-7.94,0c0-1.33-.22-2.58-.65-3.73-.43-1.16-1.03-2.15-1.8-2.97-.77-.82-1.69-1.48-2.78-1.95-1.08-.48-2.28-.72-3.58-.72s-2.49.24-3.56.72c-1.07.48-2,1.13-2.78,1.95-.78.83-1.38,1.82-1.8,2.97-.42,1.16-.63,2.4-.63,3.73s.22,2.67.65,3.84c.43,1.17,1.03,2.18,1.8,3.02.77.84,1.69,1.5,2.76,1.97s2.26.72,3.56.72,2.49-.24,3.56-.72c1.07-.48,2-1.13,2.78-1.97.78-.84,1.39-1.84,1.82-3.02.43-1.17.65-2.45.65-3.84Z" fill="#57744b" stroke-width="0"/><path d="m588.76,210.7c0,2.69-.5,5.01-1.5,6.97-1,1.95-2.32,3.56-3.95,4.82s-3.48,2.18-5.53,2.78c-2.05.59-4.14.89-6.25.89h-11.46v-30.73h11.11c2.17,0,4.31.25,6.42.76,2.11.51,3.99,1.35,5.64,2.52,1.65,1.17,2.98,2.74,3.99,4.71s1.52,4.4,1.52,7.29Zm-7.73,0c0-1.74-.28-3.17-.85-4.32-.56-1.14-1.32-2.05-2.26-2.73-.94-.68-2.01-1.16-3.21-1.45-1.2-.29-2.44-.43-3.71-.43h-3.69v17.97h3.52c1.33,0,2.61-.15,3.84-.46,1.23-.3,2.31-.8,3.25-1.5.94-.69,1.69-1.62,2.26-2.78.56-1.16.85-2.59.85-4.3Z" fill="#57744b" stroke-width="0"/><path d="m603.82,226.15v-30.73h7.46v30.73h-7.46Z" fill="#57744b" stroke-width="0"/><path d="m636.81,226.15l-12.37-20.09h-.13l.17,20.09h-7.2v-30.73h8.46l12.33,20.05h.13l-.17-20.05h7.2v30.73h-8.42Z" fill="#57744b" stroke-width="0"/><path d="m679.9,210.7c0,2.69-.5,5.01-1.5,6.97-1,1.95-2.32,3.56-3.95,4.82s-3.48,2.18-5.53,2.78c-2.05.59-4.14.89-6.25.89h-11.46v-30.73h11.11c2.17,0,4.31.25,6.42.76,2.11.51,3.99,1.35,5.64,2.52,1.65,1.17,2.98,2.74,3.99,4.71s1.52,4.4,1.52,7.29Zm-7.73,0c0-1.74-.28-3.17-.85-4.32-.56-1.14-1.32-2.05-2.26-2.73-.94-.68-2.01-1.16-3.21-1.45-1.2-.29-2.44-.43-3.71-.43h-3.69v17.97h3.52c1.33,0,2.61-.15,3.84-.46,1.23-.3,2.31-.8,3.25-1.5.94-.69,1.69-1.62,2.26-2.78.56-1.16.85-2.59.85-4.3Z" fill="#57744b" stroke-width="0"/><path d="m709.56,219.62c-.62,1.52-1.51,2.82-2.67,3.91s-2.55,1.93-4.19,2.54c-1.64.61-3.45.91-5.45.91s-3.85-.3-5.47-.91c-1.62-.61-3-1.45-4.12-2.54-1.13-1.08-2-2.39-2.6-3.91-.61-1.52-.91-3.2-.91-5.06v-19.14h7.38v18.53c0,.84.11,1.63.33,2.39.22.75.55,1.43,1,2.02.45.59,1.04,1.06,1.78,1.41.74.35,1.63.52,2.67.52s1.93-.17,2.67-.52c.74-.35,1.34-.82,1.8-1.41s.8-1.27,1-2.02c.2-.75.3-1.55.3-2.39v-18.53h7.42v19.14c0,1.85-.31,3.54-.93,5.06Z" fill="#57744b" stroke-width="0"/><path d="m732.37,203.41c-.64-.81-1.47-1.45-2.5-1.93-1.03-.48-2.02-.72-2.97-.72-.49,0-.99.04-1.5.13s-.96.25-1.37.5c-.41.25-.75.56-1.02.96-.28.39-.41.89-.41,1.5,0,.52.11.96.33,1.3.22.35.54.65.96.91.42.26.92.5,1.5.72.58.22,1.23.44,1.95.67,1.04.35,2.13.73,3.25,1.15,1.13.42,2.16.98,3.08,1.67s1.69,1.56,2.3,2.58c.61,1.03.91,2.31.91,3.84,0,1.76-.33,3.29-.98,4.58-.65,1.29-1.53,2.35-2.63,3.19s-2.36,1.46-3.78,1.87c-1.42.4-2.88.61-4.38.61-2.2,0-4.33-.38-6.38-1.15-2.05-.77-3.76-1.86-5.12-3.28l4.86-4.95c.75.93,1.74,1.7,2.97,2.32,1.23.62,2.45.93,3.67.93.55,0,1.09-.06,1.61-.17.52-.12.98-.3,1.37-.56.39-.26.7-.61.93-1.04.23-.43.35-.96.35-1.56s-.15-1.07-.43-1.48-.7-.77-1.24-1.11c-.54-.33-1.2-.64-2-.91-.8-.27-1.7-.57-2.71-.89-.98-.32-1.95-.69-2.89-1.13-.94-.43-1.78-.99-2.52-1.67-.74-.68-1.33-1.5-1.78-2.47-.45-.97-.67-2.15-.67-3.54,0-1.71.35-3.17,1.04-4.38.69-1.21,1.61-2.21,2.73-2.99,1.13-.78,2.4-1.35,3.82-1.71,1.42-.36,2.85-.54,4.3-.54,1.74,0,3.51.32,5.32.96,1.81.64,3.39,1.58,4.75,2.82l-4.73,4.99Z" fill="#57744b" stroke-width="0"/><path d="m754.03,201.76v24.39h-7.42v-24.39h-8.68v-6.34h24.78v6.34h-8.68Z" fill="#57744b" stroke-width="0"/><path d="m782.19,226.15l-6.67-12.2h-2.53v12.2h-7.25v-30.73h11.72c1.48,0,2.92.15,4.32.46s2.66.82,3.78,1.54c1.11.72,2,1.68,2.67,2.86.67,1.19,1,2.66,1,4.43,0,2.08-.56,3.83-1.69,5.25-1.13,1.42-2.69,2.43-4.69,3.04l8.03,13.15h-8.68Zm-.3-21.31c0-.72-.15-1.31-.46-1.76-.31-.45-.7-.8-1.18-1.04-.48-.25-1.02-.41-1.61-.5-.6-.09-1.17-.13-1.72-.13h-3.97v7.16h3.53c.61,0,1.24-.05,1.88-.15s1.22-.28,1.74-.54c.52-.26.95-.64,1.29-1.13.33-.49.5-1.13.5-1.91Z" fill="#57744b" stroke-width="0"/><path d="m808.67,213.13v13.02h-7.42v-13.02l-11.54-17.71h8.98l6.55,11.37,6.55-11.37h8.68l-11.8,17.71Z" fill="#57744b" stroke-width="0"/><path d="m442.02,237.26h6.13c1.12,0,2.25.15,3.39.44,1.14.29,2.17.78,3.08,1.45.91.68,1.65,1.56,2.22,2.66.57,1.1.85,2.46.85,4.09,0,1.51-.29,2.82-.85,3.91-.57,1.09-1.31,1.99-2.22,2.69-.91.7-1.94,1.22-3.08,1.55-1.14.33-2.27.5-3.39.5h-6.13v-17.29Zm5.64,14.6c.8,0,1.59-.09,2.39-.28s1.52-.5,2.16-.95c.64-.45,1.17-1.05,1.58-1.82.41-.77.61-1.73.61-2.91,0-1.24-.2-2.25-.61-3.03s-.93-1.39-1.58-1.83c-.64-.44-1.36-.74-2.16-.9-.8-.16-1.6-.24-2.39-.24h-2.56v11.96h2.56Z" fill="#57744b" stroke-width="0"/><path d="m460.19,237.26h11.45v2.69h-8.38v4.4h7.94v2.59h-7.94v4.88h8.82v2.74h-11.89v-17.29Z" fill="#57744b" stroke-width="0"/><path d="m472.45,237.26h3.44l4.76,13.31h.1l4.81-13.31h3.32l-6.94,17.29h-2.66l-6.84-17.29Z" fill="#57744b" stroke-width="0"/><path d="m490.06,237.26h11.45v2.69h-8.38v4.4h7.94v2.59h-7.94v4.88h8.82v2.74h-11.89v-17.29Z" fill="#57744b" stroke-width="0"/><path d="m504.46,237.26h3.08v14.55h7.35v2.74h-10.43v-17.29Z" fill="#57744b" stroke-width="0"/><path d="m514.89,245.86c0-1.38.23-2.63.7-3.75s1.11-2.06,1.93-2.85c.82-.78,1.8-1.38,2.93-1.81,1.13-.42,2.36-.63,3.7-.63s2.6.21,3.74.63c1.14.42,2.12,1.03,2.96,1.81.83.78,1.48,1.73,1.94,2.85s.7,2.36.7,3.75-.23,2.58-.7,3.7c-.46,1.12-1.11,2.08-1.94,2.88s-1.82,1.43-2.96,1.88c-1.14.45-2.38.67-3.74.67s-2.57-.22-3.7-.67c-1.13-.45-2.11-1.07-2.93-1.88s-1.46-1.77-1.93-2.88c-.46-1.11-.7-2.35-.7-3.7Zm3.35,0c0,.93.14,1.78.43,2.55.28.77.69,1.45,1.22,2.01.53.57,1.16,1.01,1.88,1.33s1.53.48,2.41.48,1.69-.16,2.42-.48,1.36-.76,1.89-1.33c.53-.57.94-1.24,1.22-2.01s.43-1.62.43-2.55-.14-1.73-.43-2.49c-.29-.76-.69-1.43-1.21-2-.52-.57-1.15-1.02-1.88-1.34-.73-.33-1.55-.49-2.44-.49s-1.71.16-2.43.49c-.72.33-1.35.77-1.87,1.34-.52.57-.92,1.24-1.21,2-.29.77-.43,1.6-.43,2.49Z" fill="#57744b" stroke-width="0"/><path d="m535.96,237.26h5.64c.99,0,1.89.09,2.69.27.8.18,1.48.47,2.05.88.57.41,1.01.93,1.32,1.56.31.63.46,1.4.46,2.29,0,.96-.18,1.77-.54,2.42s-.84,1.18-1.45,1.58c-.61.4-1.32.69-2.14.87-.81.18-1.68.27-2.59.27h-2.37v7.16h-3.08v-17.29Zm5.23,7.55c.5,0,.98-.04,1.44-.11s.86-.2,1.22-.39c.36-.19.64-.44.85-.77.21-.33.32-.75.32-1.27s-.11-.92-.32-1.23c-.21-.32-.49-.57-.84-.74-.35-.18-.75-.3-1.2-.35-.45-.06-.91-.08-1.38-.08h-2.25v4.96h2.15Z" fill="#57744b" stroke-width="0"/><path d="m550.37,237.26h4.81l4.49,12.28h.07l4.44-12.28h4.83v17.29h-3.05v-13.89h-.05l-5.25,13.89h-2.15l-5.18-13.89h-.05v13.89h-2.93v-17.29Z" fill="#57744b" stroke-width="0"/><path d="m572.35,237.26h11.45v2.69h-8.38v4.4h7.94v2.59h-7.94v4.88h8.82v2.74h-11.89v-17.29Z" fill="#57744b" stroke-width="0"/><path d="m586.76,237.26h4.08l8.03,12.94h.05v-12.94h3.08v17.29h-3.91l-8.21-13.36h-.05v13.36h-3.08v-17.29Z" fill="#57744b" stroke-width="0"/><path d="m608.81,239.95h-5.3v-2.69h13.67v2.69h-5.3v14.6h-3.08v-14.6Z" fill="#57744b" stroke-width="0"/><path d="m628.71,237.26h2.66l7.45,17.29h-3.52l-1.61-3.96h-7.5l-1.56,3.96h-3.44l7.52-17.29Zm3.91,10.7l-2.66-7.03-2.71,7.03h5.37Z" fill="#57744b" stroke-width="0"/><path d="m640.04,237.26h4.08l8.03,12.94h.05v-12.94h3.08v17.29h-3.91l-8.21-13.36h-.05v13.36h-3.08v-17.29Z" fill="#57744b" stroke-width="0"/><path d="m658.6,237.26h6.13c1.12,0,2.25.15,3.39.44,1.14.29,2.17.78,3.08,1.45.91.68,1.65,1.56,2.22,2.66.57,1.1.85,2.46.85,4.09,0,1.51-.29,2.82-.85,3.91-.57,1.09-1.31,1.99-2.22,2.69-.91.7-1.94,1.22-3.08,1.55-1.14.33-2.27.5-3.39.5h-6.13v-17.29Zm5.64,14.6c.8,0,1.59-.09,2.39-.28s1.52-.5,2.16-.95c.64-.45,1.17-1.05,1.58-1.82.41-.77.61-1.73.61-2.91,0-1.24-.2-2.25-.61-3.03s-.93-1.39-1.58-1.83c-.64-.44-1.36-.74-2.16-.9-.8-.16-1.6-.24-2.39-.24h-2.56v11.96h2.56Z" fill="#57744b" stroke-width="0"/><path d="m682.38,237.26h11.45v2.69h-8.38v4.4h7.94v2.59h-7.94v4.88h8.82v2.74h-11.89v-17.29Z" fill="#57744b" stroke-width="0"/><path d="m696.79,237.26h6.13c1.12,0,2.25.15,3.39.44,1.14.29,2.17.78,3.08,1.45.91.68,1.65,1.56,2.22,2.66.57,1.1.85,2.46.85,4.09,0,1.51-.29,2.82-.85,3.91-.57,1.09-1.31,1.99-2.22,2.69-.91.7-1.94,1.22-3.08,1.55-1.14.33-2.27.5-3.39.5h-6.13v-17.29Zm5.64,14.6c.8,0,1.59-.09,2.39-.28s1.52-.5,2.16-.95c.64-.45,1.17-1.05,1.58-1.82.41-.77.61-1.73.61-2.91,0-1.24-.2-2.25-.61-3.03s-.93-1.39-1.58-1.83c-.64-.44-1.36-.74-2.16-.9-.8-.16-1.6-.24-2.39-.24h-2.56v11.96h2.56Z" fill="#57744b" stroke-width="0"/><path d="m728.73,248.2c0,1.04-.18,1.98-.54,2.82-.36.84-.85,1.55-1.47,2.14s-1.35,1.04-2.2,1.35c-.85.32-1.77.48-2.76.48s-1.91-.16-2.76-.48c-.85-.32-1.58-.77-2.21-1.35s-1.12-1.3-1.46-2.14c-.35-.84-.53-1.78-.53-2.82v-10.94h3.08v10.82c0,.5.07,1.01.2,1.5.13.5.35.94.65,1.33.3.39.7.71,1.2.95.5.24,1.11.37,1.84.37s1.35-.12,1.84-.37c.5-.24.9-.56,1.2-.95.3-.39.52-.83.65-1.33.13-.5.2-1,.2-1.5v-10.82h3.08v10.94Z" fill="#57744b" stroke-width="0"/><path d="m744.38,241.32c-.46-.62-1.05-1.07-1.78-1.36-.73-.28-1.45-.43-2.15-.43-.9,0-1.71.16-2.44.49-.73.33-1.36.77-1.89,1.34-.53.57-.94,1.24-1.22,2-.29.77-.43,1.6-.43,2.49,0,.94.14,1.81.42,2.59.28.78.67,1.45,1.18,2.01.51.56,1.13,1,1.84,1.31.72.31,1.52.46,2.42.46s1.75-.18,2.47-.55c.72-.37,1.29-.85,1.73-1.45l2.47,1.73c-.77.96-1.7,1.71-2.81,2.23-1.11.53-2.4.79-3.88.79-1.35,0-2.59-.22-3.72-.67-1.13-.45-2.1-1.07-2.92-1.88-.81-.81-1.45-1.77-1.91-2.88-.46-1.11-.68-2.35-.68-3.7s.24-2.63.72-3.75c.48-1.12,1.14-2.06,1.98-2.85.84-.78,1.83-1.38,2.97-1.81,1.14-.42,2.38-.63,3.71-.63.55,0,1.13.05,1.73.16.6.11,1.18.27,1.73.49.55.22,1.07.49,1.56.82.49.33.9.72,1.25,1.17l-2.34,1.86Z" fill="#57744b" stroke-width="0"/><path d="m753.54,237.26h2.66l7.45,17.29h-3.52l-1.61-3.96h-7.5l-1.56,3.96h-3.44l7.52-17.29Zm3.91,10.7l-2.66-7.03-2.71,7.03h5.37Z" fill="#57744b" stroke-width="0"/><path d="m766.9,239.95h-5.3v-2.69h13.67v2.69h-5.3v14.6h-3.08v-14.6Z" fill="#57744b" stroke-width="0"/><path d="m776.79,237.26h3.08v17.29h-3.08v-17.29Z" fill="#57744b" stroke-width="0"/><path d="m782.36,245.86c0-1.38.23-2.63.7-3.75s1.11-2.06,1.93-2.85c.82-.78,1.8-1.38,2.93-1.81,1.13-.42,2.36-.63,3.7-.63s2.6.21,3.74.63c1.14.42,2.12,1.03,2.96,1.81.83.78,1.48,1.73,1.94,2.85s.7,2.36.7,3.75-.23,2.58-.7,3.7c-.46,1.12-1.11,2.08-1.94,2.88s-1.82,1.43-2.96,1.88c-1.14.45-2.38.67-3.74.67s-2.57-.22-3.7-.67c-1.13-.45-2.11-1.07-2.93-1.88s-1.46-1.77-1.93-2.88c-.46-1.11-.7-2.35-.7-3.7Zm3.35,0c0,.93.14,1.78.43,2.55.28.77.69,1.45,1.22,2.01.53.57,1.16,1.01,1.88,1.33s1.53.48,2.41.48,1.69-.16,2.42-.48,1.36-.76,1.89-1.33c.53-.57.94-1.24,1.22-2.01s.43-1.62.43-2.55-.14-1.73-.43-2.49c-.29-.76-.69-1.43-1.21-2-.52-.57-1.15-1.02-1.88-1.34-.73-.33-1.55-.49-2.44-.49s-1.71.16-2.43.49c-.72.33-1.35.77-1.87,1.34-.52.57-.92,1.24-1.21,2-.29.77-.43,1.6-.43,2.49Z" fill="#57744b" stroke-width="0"/><path d="m803.43,237.26h4.08l8.03,12.94h.05v-12.94h3.08v17.29h-3.91l-8.21-13.36h-.05v13.36h-3.08v-17.29Z" fill="#57744b" stroke-width="0"/><path d="m456.44,274.57v24.39h-7.42v-24.39h-8.68v-6.34h24.78v6.34h-8.68Z" fill="#57744b" stroke-width="0"/><path d="m484.6,298.96l-6.67-12.2h-2.53v12.2h-7.25v-30.73h11.72c1.48,0,2.92.15,4.32.46s2.66.82,3.78,1.54c1.11.72,2,1.68,2.67,2.86.67,1.19,1,2.66,1,4.43,0,2.08-.56,3.83-1.69,5.25-1.13,1.42-2.69,2.43-4.69,3.04l8.03,13.15h-8.68Zm-.3-21.31c0-.72-.15-1.31-.46-1.76-.31-.45-.7-.8-1.18-1.04-.48-.25-1.02-.41-1.61-.5-.6-.09-1.17-.13-1.72-.13h-3.97v7.16h3.53c.61,0,1.24-.05,1.88-.15s1.22-.28,1.74-.54c.52-.26.95-.64,1.29-1.13.33-.49.5-1.13.5-1.91Z" fill="#57744b" stroke-width="0"/><path d="m521.69,292.43c-.62,1.52-1.51,2.82-2.67,3.91s-2.55,1.93-4.19,2.54c-1.64.61-3.45.91-5.45.91s-3.85-.3-5.47-.91c-1.62-.61-3-1.45-4.12-2.54-1.13-1.08-2-2.39-2.6-3.91-.61-1.52-.91-3.2-.91-5.06v-19.14h7.38v18.53c0,.84.11,1.63.33,2.39.22.75.55,1.43,1,2.02.45.59,1.04,1.06,1.78,1.41.74.35,1.63.52,2.67.52s1.93-.17,2.67-.52c.74-.35,1.34-.82,1.8-1.41s.8-1.27,1-2.02c.2-.75.3-1.55.3-2.39v-18.53h7.42v19.14c0,1.85-.31,3.54-.93,5.06Z" fill="#57744b" stroke-width="0"/><path d="m544.5,276.22c-.64-.81-1.47-1.45-2.5-1.93-1.03-.48-2.02-.72-2.97-.72-.49,0-.99.04-1.5.13s-.96.25-1.37.5c-.41.25-.75.56-1.02.96-.28.39-.41.89-.41,1.5,0,.52.11.96.33,1.3.22.35.54.65.96.91.42.26.92.5,1.5.72.58.22,1.23.44,1.95.67,1.04.35,2.13.73,3.25,1.15,1.13.42,2.16.98,3.08,1.67s1.69,1.56,2.3,2.58c.61,1.03.91,2.31.91,3.84,0,1.76-.33,3.29-.98,4.58-.65,1.29-1.53,2.35-2.63,3.19s-2.36,1.46-3.78,1.87c-1.42.4-2.88.61-4.38.61-2.2,0-4.33-.38-6.38-1.15-2.05-.77-3.76-1.86-5.12-3.28l4.86-4.95c.75.93,1.74,1.7,2.97,2.32,1.23.62,2.45.93,3.67.93.55,0,1.09-.06,1.61-.17.52-.12.98-.3,1.37-.56.39-.26.7-.61.93-1.04.23-.43.35-.96.35-1.56s-.15-1.07-.43-1.48-.7-.77-1.24-1.11c-.54-.33-1.2-.64-2-.91-.8-.27-1.7-.57-2.71-.89-.98-.32-1.95-.69-2.89-1.13-.94-.43-1.78-.99-2.52-1.67-.74-.68-1.33-1.5-1.78-2.47-.45-.97-.67-2.15-.67-3.54,0-1.71.35-3.17,1.04-4.38.69-1.21,1.61-2.21,2.73-2.99,1.13-.78,2.4-1.35,3.82-1.71,1.42-.36,2.85-.54,4.3-.54,1.74,0,3.51.32,5.32.96,1.81.64,3.39,1.58,4.75,2.82l-4.73,4.99Z" fill="#57744b" stroke-width="0"/><path d="m566.15,274.57v24.39h-7.42v-24.39h-8.68v-6.34h24.78v6.34h-8.68Z" fill="#57744b" stroke-width="0"/></svg>