<svg xmlns="http://www.w3.org/2000/svg" viewBox="0 0 362.835 147.401">
<defs>
<clipPath id="clip_0">
<path transform="matrix(1,0,0,-1,0,147.401)" d="M0 147.401H362.835V0H0Z"/>
</clipPath>
</defs>
<g id="layer_1" data-name="Logo">
<g clip-path="url(#clip_0)">
<path transform="matrix(1,0,0,-1,57.2261,91.0411)" d="M0 0 20.74-20.794 14.054-27.458-3.268-21.98C-4.131-21.704-5.584-21.173-7.633-20.376L-9.792-19.552-11.938-18.715-12.088-18.866-10.659-20.175-9.263-21.485-6.512-24.181 5.388-36.108 1.444-40.043-19.301-19.253-12.614-12.581 3.308-17.729C4.718-18.186 6.402-18.765 8.359-19.466L10.838-20.367 13.329-21.284 13.468-21.146 12.086-19.851 10.699-18.563 7.999-15.907-3.946-3.933Z" fill="#662611"/>
<path transform="matrix(1,0,0,-1,76.2192,72.090908)" d="M0 0 3.297-3.306 5.821-28.807 5.943-28.933 17.566-17.336 20.881-20.656 4.262-37.237 .902-33.867-1.655-8.518-1.776-8.4-12.666-19.258-15.978-15.943Z" fill="#662611"/>
<path transform="matrix(1,0,0,-1,71.3179,129.5851)" d="M0 0 12.045-12.071 9.287-14.83-2.763-2.754-6.962-6.939-9.428-4.467 1.881 6.814 4.349 4.342Z" fill="#662611"/>
<path transform="matrix(1,0,0,-1,89.5483,130.8536)" d="M0 0 3.933 3.923C5.255 5.245 5.807 6.401 5.588 7.396 5.369 8.388 4.225 9.922 2.154 11.997 .016 14.146-1.521 15.336-2.449 15.568-3.379 15.804-4.487 15.282-5.773 13.995L-9.876 9.903ZM-.443-5.074-14.955 9.473-7.801 16.605C-5.77 18.635-3.905 19.609-2.205 19.535-.507 19.46 1.452 18.308 3.671 16.085 7.292 12.448 9.293 9.79 9.671 8.11 10.047 6.422 9.089 4.436 6.794 2.147Z" fill="#662611"/>
<path transform="matrix(1,0,0,-1,104.2759,100.230609)" d="M0 0-2.695-2.694C-2.845-2.571-2.951-2.479-3.016-2.416-3.894-1.661-4.588-1.332-5.096-1.416-5.603-1.51-6.411-2.103-7.518-3.209-8.827-4.511-9.56-5.485-9.72-6.126-9.881-6.767-9.575-7.477-8.803-8.252-7.888-9.17-7.176-9.554-6.666-9.415-6.154-9.274-4.931-8.339-3-6.61-.71-4.567 1-3.478 2.129-3.344 3.264-3.209 4.612-3.922 6.18-5.492 8.106-7.423 8.979-9.046 8.795-10.353 8.614-11.663 7.251-13.583 4.708-16.12 2.42-18.403 .626-19.646-.682-19.839-1.981-20.034-3.477-19.283-5.162-17.591L-5.704-17.071-3.019-14.389-2.7-14.688C-1.685-15.7-.888-16.149-.306-16.021 .275-15.895 1.359-15.042 2.944-13.463 4.178-12.224 4.838-11.31 4.916-10.704 4.993-10.104 4.558-9.327 3.608-8.372 2.907-7.668 2.313-7.332 1.822-7.356 1.332-7.388 .636-7.806-.277-8.612L-1.896-10.037C-4.333-12.196-6.122-13.351-7.264-13.482-8.408-13.615-9.81-12.851-11.467-11.187-13.162-9.488-13.904-7.973-13.697-6.636-13.49-5.302-12.23-3.488-9.923-1.183-7.733 1.002-6 2.209-4.725 2.452-3.445 2.689-2.056 2.058-.554 .553Z" fill="#662611"/>
<path transform="matrix(1,0,0,-1,90.106,21.920998)" d="M0 0C-6.514-11.5-7.417-11.547-7.417-11.547L-7.608-12.539C-7.608-12.539-7.799-12.738-8.086-13.037L3.699-24.832 16.8-11.701 2.552 2.515C1.696 1.698 .069 .133 0 0" fill="#662611"/>
<path transform="matrix(1,0,0,-1,77.4644,39.689599)" d="M0 0C-4.302-4.457-9.828-10.146-10.022-10.164-10.344-10.192-10.447-10.057-10.447-10.057-10.447-10.057-44.967-45.654-45.396-45.766-45.827-45.878-46.458-45.502-46.988-45.261-46.988-45.261-54.694-53.627-54.921-54.007-55.142-54.39-58.667-50.295-58.65-49.697-58.642-49.354-50.087-41.327-50.087-41.327-50.087-41.327-51.007-39.679-51.637-39.304-52.269-38.821-51.818-37.949-51.818-37.949-51.818-37.949-33.035-19.433-32.377-18.727-31.619-18.257-31.659-19.776-31.659-19.776L-45.496-33.505-45.1-34.695C-45.1-34.695-16.002-5.843-15.558-5.191L-15.65-4.728C-15.457-4.646-9.848 .935-5.386 5.39L-15.138 15.148C-15.145 15.142-15.172 15.114-15.175 15.111L-22.391 16.139-75.267-36.854-44.258-67.796 11.703-11.71Z" fill="#662611"/>
<path transform="matrix(1,0,0,-1,66.9038,19.8312)" d="M0 0 9.816-9.824C10.311-9.329 10.614-9.025 10.614-9.025L11.574-8.937C14.645-6.199 22.566-1.66 22.566-1.66L25.344 .833 8.994 17.148-1.005 7.129Z" fill="#662611"/>
<path transform="matrix(1,0,0,-1,110.6401,37.9572)" d="M0 0-12.856-12.778-8.319-17.317-7.16-15.803C-6.637-16.327-6.102-16.856-5.563-17.398L-6.724-18.914-4.782-20.856-3.622-19.343C-3.089-19.87-2.555-20.408-2.03-20.933L-3.192-22.45-1.244-24.397-.081-22.881C.448-23.411 .98-23.941 1.509-24.472L.347-25.989 2.29-27.936 3.454-26.416C3.994-26.952 4.528-27.491 5.044-28.006L3.881-29.526 5.824-31.472 6.987-29.95C7.552-30.514 8.081-31.042 8.585-31.547L7.42-33.067 9.365-35.016 10.532-33.493C11.148-34.108 11.683-34.645 12.122-35.083L10.955-36.606 12.871-38.524 13.721-37.382C13.896-37.58 14.554-38.315 15.23-39.091L14.465-40.119 16.233-41.889 16.592-41.378C16.772-41.57 17.426-42.295 18.118-43.065L17.706-43.653C19.37-46.49 21.78-51.803 21.54-52.042 21.362-52.223 16.96-50.182 14.222-48.614L13.61-49.485 11.973-47.958 12.404-47.343 10.504-45.441 9.634-46.61 7.984-45.091 8.91-43.846 6.927-41.862 5.657-43.519C5.295-43.158 4.746-42.609 4.068-41.933L5.339-40.272 3.393-38.325 2.117-39.99C1.617-39.491 1.088-38.962 .524-38.398L1.8-36.73-.142-34.788-1.419-36.459C-1.946-35.937-2.472-35.41-3.021-34.866L-1.738-33.19-3.679-31.249-4.962-32.925C-5.49-32.396-6.02-31.865-6.558-31.333L-5.271-29.655-7.219-27.707-8.503-29.384C-9.029-28.858-9.556-28.332-10.094-27.796L-8.808-26.116-10.754-24.17-12.043-25.851C-12.582-25.316-13.11-24.788-13.638-24.264L-12.346-22.577-17.513-17.406-31.068-30.879 7.744-69.929 38.813-39.052Z" fill="#a87b6a"/>
<path transform="matrix(1,0,0,-1,174.2954,39.650499)" d="M0 0V-19.043H-6.125L-11.565-8.594C-11.835-8.072-12.258-7.162-12.835-5.859L-13.449-4.492-14.049-3.125H-14.188L-14.132-4.381-14.091-5.622-14.063-8.119V-19.043H-17.676V0H-11.551L-6.599-9.654C-6.161-10.511-5.655-11.546-5.078-12.765L-4.353-14.313-3.627-15.876H-3.502L-3.543-14.648-3.585-13.421-3.613-10.966V0Z" fill="#231f20"/>
<path transform="matrix(1,0,0,-1,180.8804,42.691499)" d="M0 0V-4.911H8.929V-7.575H0V-12.961H9.501V-16.002H-3.613V3.041H9.417V0Z" fill="#231f20"/>
<path transform="matrix(1,0,0,-1,219.8457,39.650499)" d="M0 0-5.092-19.043H-10.436L-13.086-9.277C-13.329-8.394-13.611-7.213-13.937-5.733L-14.202-4.562H-14.328L-14.607-5.748-14.872-6.92C-15.067-7.71-15.276-8.501-15.5-9.291L-18.22-19.043H-23.507L-28.446 0H-24.763L-22.015-10.449C-21.847-11.119-21.638-12.045-21.387-13.226L-21.094-14.62-20.815-16.016H-20.689C-20.541-15.401-20.429-14.937-20.355-14.62L-20.02-13.239C-19.843-12.514-19.596-11.588-19.281-10.463L-16.351 0H-12.11L-9.25-10.463C-9.007-11.356-8.77-12.282-8.538-13.239L-8.217-14.62-7.882-16.016H-7.771L-7.464-14.62-7.171-13.226C-6.929-12.101-6.71-11.17-6.515-10.436L-3.697 0Z" fill="#231f20"/>
<path transform="matrix(1,0,0,-1,242.7251,39.650499)" d="M0 0V-3.027L-10.519-15.89V-16.002H.126V-19.043H-15.095V-15.96L-4.659-3.153V-3.041H-14.635V0Z" fill="#231f20"/>
<path transform="matrix(1,0,0,-1,248.3892,42.691499)" d="M0 0V-4.911H8.929V-7.575H0V-12.961H9.501V-16.002H-3.613V3.041H9.417V0Z" fill="#231f20"/>
<path transform="matrix(1,0,0,-1,271.269,52.3741)" d="M0 0-3.292 9.92-6.529 0ZM.837-2.664H-7.38L-8.566-6.319H-12.389L-6.055 12.724H-.628L5.804-6.319H2.051Z" fill="#231f20"/>
<path transform="matrix(1,0,0,-1,282.3325,39.650499)" d="M0 0V-15.807H8.929V-19.043H-3.613V0Z" fill="#231f20"/>
<path transform="matrix(1,0,0,-1,303.7749,52.3741)" d="M0 0-3.292 9.92-6.529 0ZM.837-2.664H-7.38L-8.566-6.319H-12.389L-6.055 12.724H-.628L5.804-6.319H2.051Z" fill="#231f20"/>
<path transform="matrix(1,0,0,-1,328.9009,39.650499)" d="M0 0V-19.043H-6.125L-11.565-8.594C-11.836-8.072-12.258-7.162-12.835-5.859L-13.449-4.492-14.049-3.125H-14.188L-14.133-4.381-14.091-5.622-14.063-8.119V-19.043H-17.676V0H-11.552L-6.599-9.654C-6.161-10.511-5.655-11.546-5.078-12.765L-4.353-14.313-3.627-15.876H-3.502L-3.544-14.648-3.585-13.421-3.613-10.966V0Z" fill="#231f20"/>
<path transform="matrix(1,0,0,-1,335.8623,55.652505)" d="M0 0H5.148C6.878 0 7.997 .398 8.504 1.192 9.01 1.989 9.263 3.744 9.263 6.46 9.263 9.269 9.035 11.055 8.58 11.816 8.125 12.579 7.054 12.961 5.371 12.961H0ZM-3.613-3.041V16.002H5.748C8.408 16.002 10.271 15.421 11.334 14.258 12.4 13.095 12.933 11.059 12.933 8.147 12.933 3.396 12.505 .343 11.649-1.012 10.793-2.364 8.864-3.041 5.859-3.041Z" fill="#231f20"/>
<path transform="matrix(1,0,0,-1,164.209,72.757)" d="M0 0V-15.807H-3.613V0H-9.11V3.236H5.692V0Z" fill="#231f20"/>
<path transform="matrix(1,0,0,-1,0,147.401)" d="M175.342 58.837H171.72899V77.880008H175.342Z" fill="#231f20"/>
<path transform="matrix(1,0,0,-1,200.9839,69.5206)" d="M0 0V-19.043H-3.613V-8.664C-3.613-7.836-3.591-6.897-3.544-5.846L-3.474-4.423-3.404-3.014H-3.516L-3.948-4.339-4.367-5.664C-4.757-6.855-5.06-7.734-5.273-8.301L-9.459-19.043H-12.751L-16.979-8.385C-17.211-7.799-17.518-6.92-17.899-5.748L-18.332-4.423-18.764-3.111H-18.876L-18.806-4.492-18.736-5.888C-18.681-6.967-18.652-7.892-18.652-8.664V-19.043H-22.266V0H-16.379L-12.975-8.817C-12.742-9.432-12.436-10.311-12.054-11.454L-11.635-12.779-11.203-14.091H-11.077L-10.673-12.779-10.254-11.468C-9.91-10.361-9.612-9.487-9.361-8.846L-6.013 0Z" fill="#231f20"/>
<path transform="matrix(1,0,0,-1,207.9453,85.5226)" d="M0 0H3.962L5.232 .027C6.451 .027 7.252 .2 7.639 .544 8.024 .888 8.217 1.613 8.217 2.721 8.217 3.873 8.014 4.599 7.611 4.896 7.205 5.195 6.208 5.343 4.618 5.343H0ZM0 8.008H4.422C5.854 8.008 6.769 8.166 7.165 8.482 7.559 8.798 7.757 9.528 7.757 10.672 7.757 12.198 6.892 12.961 5.162 12.961H0ZM-3.613-3.041V16.002H5.748C7.943 16.002 9.437 15.65 10.234 14.947 11.028 14.246 11.426 12.924 11.426 10.979 11.426 8.627 10.491 7.24 8.622 6.822V6.752C10.798 6.417 11.886 4.905 11.886 2.218 11.886 .273 11.468-1.088 10.631-1.869 9.793-2.65 8.334-3.041 6.25-3.041Z" fill="#231f20"/>
<path transform="matrix(1,0,0,-1,225.6909,72.5616)" d="M0 0V-4.911H8.929V-7.576H0V-12.961H9.501V-16.002H-3.613V3.041H9.417V0Z" fill="#231f20"/>
<path transform="matrix(1,0,0,-1,241.4976,79.1056)" d="M0 0H5.189C6.426 0 7.248 .221 7.651 .662 8.058 1.104 8.259 1.99 8.259 3.321 8.259 4.679 8.085 5.556 7.735 5.951 7.388 6.346 6.622 6.544 5.441 6.544H0ZM-3.613-9.458V9.585H5.776C8.11 9.585 9.719 9.181 10.603 8.371 11.487 7.562 11.928 6.097 11.928 3.977 11.928 2.052 11.708 .734 11.266 .028 10.823-.679 9.919-1.167 8.552-1.437V-1.563C10.664-1.692 11.719-2.925 11.719-5.259V-9.458H8.105V-5.984C8.105-4.022 7.138-3.041 5.204-3.041H0V-9.458Z" fill="#231f20"/>
<path transform="matrix(1,0,0,-1,267.0562,85.5226)" d="M0 0H5.147C6.878 0 7.996 .398 8.503 1.192 9.01 1.988 9.263 3.744 9.263 6.459 9.263 9.269 9.035 11.055 8.58 11.816 8.124 12.578 7.054 12.961 5.371 12.961H0ZM-3.613-3.041V16.002H5.748C8.407 16.002 10.271 15.421 11.334 14.258 12.399 13.095 12.933 11.058 12.933 8.147 12.933 3.395 12.505 .342 11.649-1.012 10.793-2.364 8.864-3.041 5.859-3.041Z" fill="#231f20"/>
<path transform="matrix(1,0,0,-1,285.8618,72.5616)" d="M0 0V-4.911H8.929V-7.576H0V-12.961H9.501V-16.002H-3.613V3.041H9.417V0Z" fill="#231f20"/>
<path transform="matrix(1,0,0,-1,312.1875,75.0734)" d="M0 0H-3.53C-3.548 .176-3.558 .307-3.558 .391-3.641 1.46-3.878 2.132-4.269 2.406-4.66 2.682-5.581 2.818-7.032 2.818-8.742 2.818-9.861 2.66-10.386 2.344-10.913 2.027-11.175 1.362-11.175 .349-11.175-.852-10.96-1.571-10.533-1.813-10.106-2.056-8.692-2.241-6.292-2.371-3.455-2.53-1.621-2.935-.788-3.586 .044-4.236 .46-5.59 .46-7.646 .46-10.176-.028-11.809-1.004-12.55-1.981-13.288-4.134-13.658-7.464-13.658-10.458-13.658-12.447-13.295-13.427-12.57-14.409-11.845-14.9-10.375-14.9-8.161L-14.914-7.464H-11.398L-11.384-7.868C-11.384-9.199-11.152-10.012-10.687-10.31-10.221-10.607-8.952-10.756-6.878-10.756-5.259-10.756-4.227-10.584-3.781-10.24-3.334-9.896-3.111-9.102-3.111-7.854-3.111-6.934-3.281-6.322-3.621-6.021-3.959-5.717-4.693-5.533-5.818-5.469L-7.813-5.344C-10.826-5.167-12.751-4.748-13.588-4.088-14.425-3.427-14.844-2.009-14.844 .168-14.844 2.391-14.339 3.872-13.331 4.61-12.321 5.351-10.305 5.72-7.283 5.72-4.417 5.72-2.489 5.38-1.493 4.701-.498 4.023 0 2.697 0 .726Z" fill="#231f20"/>
<path transform="matrix(1,0,0,-1,0,147.401)" d="M318.772 58.837H315.159V77.880008H318.772Z" fill="#231f20"/>
<path transform="matrix(1,0,0,-1,329.6401,78.4357)" d="M0 0H8.385L8.44-3.78C8.44-6.534 7.922-8.308 6.886-9.104 5.848-9.897 3.535-10.296-.056-10.296-3.348-10.296-5.529-9.766-6.599-8.705-7.668-7.646-8.203-5.482-8.203-2.218-8.203 1.948-7.989 4.581-7.562 5.679-7.031 7.018-6.228 7.919-5.148 8.385-4.068 8.851-2.237 9.082 .349 9.082 3.734 9.082 5.92 8.722 6.906 8.001 7.892 7.28 8.385 5.684 8.385 3.209H4.729C4.665 4.456 4.392 5.229 3.913 5.532 3.435 5.834 2.232 5.985 .307 5.985-1.786 5.985-3.113 5.726-3.677 5.204-4.238 4.683-4.52 3.46-4.52 1.534L-4.534-.377-4.506-2.818C-4.506-4.706-4.227-5.907-3.669-6.425-3.111-6.94-1.818-7.198 .209-7.198 2.182-7.198 3.435-6.98 3.969-6.543 4.504-6.105 4.771-5.073 4.771-3.446L4.785-2.665H0Z" fill="#231f20"/>
<path transform="matrix(1,0,0,-1,358.2954,69.5206)" d="M0 0V-19.043H-6.124L-11.565-8.594C-11.835-8.072-12.258-7.162-12.835-5.859L-13.449-4.492-14.049-3.125H-14.188L-14.132-4.381-14.09-5.623-14.063-8.119V-19.043H-17.676V0H-11.551L-6.599-9.654C-6.161-10.511-5.655-11.547-5.078-12.766L-4.353-14.314-3.627-15.877H-3.501L-3.543-14.648-3.585-13.421-3.613-10.966V0Z" fill="#231f20"/>
<path transform="matrix(1,0,0,-1,170.752,104.9435)" d="M0 0H-3.53C-3.548 .176-3.558 .307-3.558 .391-3.641 1.46-3.878 2.132-4.269 2.405-4.66 2.681-5.581 2.817-7.031 2.817-8.742 2.817-9.861 2.659-10.386 2.344-10.913 2.027-11.175 1.362-11.175 .349-11.175-.852-10.96-1.571-10.533-1.813-10.106-2.056-8.691-2.241-6.292-2.372-3.455-2.53-1.621-2.935-.788-3.586 .044-4.236 .46-5.59 .46-7.646 .46-10.176-.028-11.81-1.004-12.55-1.981-13.288-4.134-13.658-7.464-13.658-10.458-13.658-12.447-13.296-13.427-12.57-14.409-11.845-14.9-10.375-14.9-8.161L-14.914-7.464H-11.398L-11.384-7.868C-11.384-9.199-11.152-10.012-10.687-10.31-10.221-10.608-8.952-10.757-6.878-10.757-5.259-10.757-4.227-10.584-3.781-10.24-3.334-9.896-3.111-9.102-3.111-7.854-3.111-6.935-3.281-6.323-3.621-6.021-3.959-5.718-4.693-5.534-5.818-5.47L-7.813-5.344C-10.826-5.167-12.751-4.749-13.588-4.088-14.425-3.427-14.844-2.009-14.844 .167-14.844 2.391-14.339 3.872-13.331 4.61-12.321 5.351-10.305 5.72-7.283 5.72-4.417 5.72-2.488 5.38-1.493 4.701-.497 4.022 0 2.697 0 .726Z" fill="#231f20"/>
<path transform="matrix(1,0,0,-1,181.355,102.321399)" d="M0 0C-2.428 0-3.846-.312-4.255-.935-4.665-1.557-4.869-3.716-4.869-7.407-4.869-10.143-4.629-11.788-4.151-12.346-3.672-12.904-2.26-13.184 .083-13.184 2.324-13.184 3.669-12.869 4.115-12.242 4.562-11.613 4.785-9.709 4.785-6.528 4.785-3.339 4.573-1.453 4.151-.871 3.728-.29 2.344 0 0 0M.279 3.098C3.738 3.098 5.966 2.523 6.961 1.374 7.957 .227 8.454-2.344 8.454-6.333 8.454-10.695 7.954-13.443 6.954-14.578 5.954-15.714 3.534-16.28-.307-16.28-3.767-16.28-6.004-15.72-7.018-14.599-8.031-13.479-8.538-11.012-8.538-7.198-8.538-2.659-8.041 .19-7.046 1.354-6.05 2.517-3.608 3.098 .279 3.098" fill="#231f20"/>
<path transform="matrix(1,0,0,-1,204.0112,111.6398)" d="M0 0H3.627V-.656C3.627-3.307 3.144-5.021 2.176-5.798 1.208-6.574-.93-6.962-4.241-6.962-7.999-6.962-10.31-6.348-11.175-5.121-12.04-3.893-12.472-.609-12.472 4.729-12.472 7.873-11.886 9.939-10.714 10.931-9.542 11.92-7.092 12.416-3.362 12.416-.647 12.416 1.167 12.009 2.079 11.194 2.99 10.382 3.446 8.766 3.446 6.348L3.46 5.915H-.167V6.403C-.167 7.649-.402 8.447-.871 8.795-1.342 9.145-2.414 9.318-4.088 9.318-6.329 9.318-7.676 9.045-8.126 8.496-8.577 7.946-8.803 6.319-8.803 3.613-8.803-.033-8.601-2.191-8.197-2.86-7.791-3.53-6.482-3.865-4.269-3.865-2.475-3.865-1.309-3.679-.775-3.307-.24-2.936 .028-2.116 .028-.852Z" fill="#231f20"/>
<path transform="matrix(1,0,0,-1,0,147.401)" d="M213.526 28.966H209.913V48.009H213.526Z" fill="#231f20"/>
<path transform="matrix(1,0,0,-1,220.1387,102.4327)" d="M0 0V-4.91H8.928V-7.575H0V-12.961H9.5V-16.002H-3.614V3.041H9.417V0Z" fill="#231f20"/>
<path transform="matrix(1,0,0,-1,239.9214,102.6281)" d="M0 0V-15.807H-3.613V0H-9.11V3.236H5.691V0Z" fill="#231f20"/>
<path transform="matrix(1,0,0,-1,263.2192,99.3917)" d="M0 0-7.059-11.774V-19.043H-10.672V-11.774L-17.536 0H-13.351L-10.477-5.021C-10.318-5.301-10.05-5.817-9.668-6.57L-9.264-7.338-8.873-8.105H-8.775L-8.371-7.338-7.966-6.57C-7.622-5.882-7.347-5.365-7.143-5.021L-4.241 0Z" fill="#231f20"/>
</g>
</g>
</svg>
